<?xml version="1.0" encoding="UTF-8"?>
<svg version="1.1" xmlns="http://www.w3.org/2000/svg" width="500" height="500">
<path d="M0 0 C5.32804585 2.99316862 9.2159849 7.62472215 11.7109375 13.19921875 C11.3809375 14.18921875 11.0509375 15.17921875 10.7109375 16.19921875 C10.31003906 15.8125 9.90914063 15.42578125 9.49609375 15.02734375 C4.15974893 10.13871947 -1.28960227 6.90500585 -8.4765625 5.63671875 C-13.28650343 6.59870694 -16.14985574 9.55051128 -18.86010742 13.47290039 C-20.56312767 16.28853606 -22.18621433 19.13787551 -23.7890625 22.01171875 C-25.02440939 24.1785737 -26.26009618 26.34523489 -27.49609375 28.51171875 C-28.43702881 30.17460937 -28.43702881 30.17460937 -29.39697266 31.87109375 C-32.37658123 37.11212911 -35.42967489 42.30962297 -38.4765625 47.51171875 C-39.63053622 49.49460089 -40.78418664 51.4776712 -41.9375 53.4609375 C-44.13028281 57.22625158 -46.34453072 60.97751316 -48.578125 64.71875 C-49.08964111 65.58266357 -49.60115723 66.44657715 -50.12817383 67.33666992 C-51.07878092 68.94159713 -52.03645427 70.54236987 -53.00268555 72.13793945 C-55.36419128 76.14494564 -57.0421309 79.44578554 -57.2890625 84.19921875 C-56.07629811 88.40822456 -55.13687942 90.56828523 -51.6015625 93.19921875 C-47.60640174 94.40530502 -44.21897229 94.7742115 -40.2890625 93.19921875 C-34.68115149 88.83646995 -32.00537998 82.52216164 -28.7890625 76.32421875 C-27.54621096 73.97290022 -26.3016218 71.62258484 -25.0546875 69.2734375 C-24.74061951 68.67980911 -24.42655151 68.08618073 -24.10296631 67.4745636 C-19.51754326 58.82493582 -14.66487499 50.3259123 -9.79541016 41.83398438 C-8.31718125 39.24840149 -6.85515803 36.65415008 -5.39453125 34.05859375 C-4.50601553 32.5008414 -3.61673889 30.94352271 -2.7265625 29.38671875 C-2.33307617 28.68087646 -1.93958984 27.97503418 -1.53417969 27.24780273 C1.94935191 21.22577232 1.94935191 21.22577232 5.7109375 20.19921875 C7.9296875 20.046875 7.9296875 20.046875 10.2109375 20.26171875 C10.96375 20.31457031 11.7165625 20.36742187 12.4921875 20.421875 C17.66869674 22.23547595 20.26290346 28.58839827 22.90625 33.125 C23.49055786 34.11614807 23.49055786 34.11614807 24.08666992 35.12731934 C24.91406881 36.53132778 25.7398172 37.93631001 26.56402588 39.3421936 C28.68844421 42.96585654 30.82410206 46.58286781 32.9609375 50.19921875 C33.3760257 50.90206497 33.79111389 51.60491119 34.21878052 52.32905579 C37.71903938 58.24231166 41.31362964 64.09127577 45.03173828 69.87036133 C48.92995914 75.96682029 49.39322741 81.07416268 48.7109375 88.19921875 C47.13981249 93.8306608 44.22043261 97.11837007 39.39453125 100.2890625 C34.23562571 103.07798359 28.0699907 103.12605768 22.48828125 101.5859375 C12.90317021 97.39360569 8.33543711 86.43152196 3.3984375 77.82421875 C2.76615234 76.73238281 2.13386719 75.64054687 1.48242188 74.515625 C-4.43945099 64.27135618 -4.43945099 64.27135618 -4.4765625 59.69921875 C-4.49074219 58.90515625 -4.50492187 58.11109375 -4.51953125 57.29296875 C-4.2890625 55.19921875 -4.2890625 55.19921875 -2.2890625 53.19921875 C1.28872597 58.38675239 4.64740295 63.68602575 7.875 69.09765625 C8.23752869 69.7039386 8.60005737 70.31022095 8.97357178 70.93487549 C10.47919213 73.45514764 11.98296191 75.97639848 13.47558594 78.50439453 C14.58062587 80.37325405 15.69569458 82.23581043 16.8125 84.09765625 C17.46557129 85.19770996 18.11864258 86.29776367 18.79150391 87.43115234 C21.51110001 91.35315446 23.47538398 92.87889006 28.0859375 94.07421875 C32.32655808 94.22044705 34.22286209 93.57745199 37.7109375 91.19921875 C40.48788146 88.15353828 40.70674327 86.4943128 40.765625 82.3515625 C39.8636954 75.34236179 35.6239266 69.70990512 31.8984375 63.88671875 C31.12455604 62.65167629 30.35235292 61.41558067 29.58178711 60.1784668 C28.03483369 57.69683871 26.48091668 55.21978072 24.92285156 52.74511719 C21.2560971 46.89693106 17.77528309 40.93586755 14.29174805 34.97729492 C13.84355713 34.2216626 13.39536621 33.46603027 12.93359375 32.6875 C12.35750366 31.70583862 12.35750366 31.70583862 11.76977539 30.7043457 C10.77083714 29.03157391 10.77083714 29.03157391 8.7109375 28.19921875 C6.14423786 30.51855965 4.64465562 32.88391335 3.03125 35.93359375 C2.52110352 36.88878906 2.01095703 37.84398437 1.48535156 38.828125 C0.94104492 39.85808594 0.39673828 40.88804687 -0.1640625 41.94921875 C-5.21560214 51.39551222 -10.37140974 60.77045657 -15.6796875 70.07495117 C-18.12058312 74.35433235 -20.54117544 78.63706686 -22.859375 82.984375 C-27.11023772 90.91427495 -30.66498346 96.85517175 -38.6015625 101.57421875 C-44.67513159 102.98667668 -50.1749336 103.27441593 -55.6640625 100.01171875 C-60.35050602 96.65751018 -63.72008393 92.82139198 -65.2890625 87.19921875 C-66.11867781 77.07791203 -61.65311027 69.72224977 -56.5390625 61.32421875 C-55.36838899 59.37453946 -54.19917962 57.42398047 -53.03125 55.47265625 C-52.41991211 54.45268555 -51.80857422 53.43271484 -51.17871094 52.38183594 C-48.60021206 48.03903086 -46.08508465 43.66114664 -43.57324219 39.27954102 C-41.07498464 34.921647 -38.56030159 30.57338179 -36.04199219 26.22705078 C-34.91440762 24.27937615 -33.78981081 22.32996709 -32.66894531 20.37841797 C-31.2243332 17.87180826 -29.76029214 15.37777211 -28.2890625 12.88671875 C-27.88091309 12.17032227 -27.47276367 11.45392578 -27.05224609 10.71582031 C-21.26489014 1.05218324 -11.12644378 -3.89235661 0 0 Z " fill="#FFBD59" transform="translate(323.2890625,201.80078125)"/>
<path d="M0 0 C6.19345589 3.6660254 9.4108312 10.8036564 12.875 16.875 C13.35066406 17.70531738 13.82632813 18.53563477 14.31640625 19.39111328 C17.02969913 24.14371292 19.71423781 28.91185389 22.38671875 33.6875 C26.53790619 41.08523489 30.82277137 48.40345347 35.11791992 55.71826172 C36.20342972 57.56934829 37.28484228 59.42284543 38.36157227 61.27905273 C39.34896792 62.97270945 40.35145373 64.65768431 41.37084961 66.33227539 C45.28756303 72.93986063 45.95801456 78.21292502 44.875 85.875 C42.5894807 90.79765695 39.15805294 93.68549249 34.875 96.875 C29.23785071 98.75404976 23.14275589 98.77643313 17.625 96.4375 C9.81851223 91.78266737 5.92138851 81.503932 1.8125 73.75 C-3.73176576 63.39645481 -9.44394921 53.15003081 -15.25 42.94140625 C-15.72953125 42.09594238 -16.2090625 41.25047852 -16.703125 40.37939453 C-17.66786295 38.68017031 -18.63675561 36.98329951 -19.609375 35.28857422 C-20.29773438 34.07645264 -20.29773438 34.07645264 -21 32.83984375 C-21.40992188 32.12304443 -21.81984375 31.40624512 -22.2421875 30.66772461 C-23.125 28.875 -23.125 28.875 -23.125 26.875 C-25.01271892 26.95433202 -25.01271892 26.95433202 -27.125 27.875 C-29.08508059 30.32922948 -29.08508059 30.32922948 -30.84765625 33.46484375 C-31.18997787 34.03660843 -31.5322995 34.60837311 -31.88499451 35.19746399 C-32.9979205 37.06225862 -34.09296921 38.93685925 -35.1875 40.8125 C-35.94680811 42.09603404 -36.7072297 43.37891002 -37.46875 44.66113281 C-38.61127464 46.58526459 -39.7528306 48.50989449 -40.88943481 50.43753052 C-43.08272036 54.15179821 -45.32891538 57.82197918 -47.65234375 61.45703125 C-48.41695923 62.66081421 -48.41695923 62.66081421 -49.19702148 63.88891602 C-50.11711466 65.32969792 -51.04692332 66.76434415 -51.98852539 68.19116211 C-54.90131728 72.80688809 -55.91039988 76.39399705 -56.125 81.875 C-54.57623978 85.54311631 -52.66284843 88.00780222 -49.125 89.875 C-44.03534676 90.4302349 -41.19900564 89.93759808 -37.125 86.875 C-35.46697608 84.50436247 -34.02959716 82.23139374 -32.62109375 79.72265625 C-32.21593033 79.02611435 -31.81076691 78.32957245 -31.39332581 77.61192322 C-30.10483261 75.39355628 -28.83267911 73.16639575 -27.5625 70.9375 C-26.28675859 68.71344543 -25.00751793 66.49160598 -23.72096252 64.27378845 C-22.92279755 62.89647585 -22.13106537 61.51540897 -21.3467865 60.13014221 C-19.28719719 56.56117334 -17.20188372 53.62736014 -14.125 50.875 C-12.38122596 54.36254808 -12.68106509 58.06147583 -13.125 61.875 C-14.12244328 64.68573012 -15.54723955 67.10224341 -17.125 69.625 C-17.53218262 70.30675293 -17.93936523 70.98850586 -18.35888672 71.69091797 C-19.19541353 73.08577855 -20.04028697 74.47566845 -20.89355469 75.86035156 C-22.04936062 77.75125374 -23.16003008 79.66093093 -24.2578125 81.5859375 C-32.2265625 95.2421875 -32.2265625 95.2421875 -40.125 97.875 C-46.88842725 98.60780473 -52.60447372 98.08286781 -58.125 93.875 C-62.24063056 89.46247072 -63.92216277 85.56259327 -64.375 79.5625 C-63.87474857 72.18379142 -59.56449855 65.85444131 -55.9375 59.5625 C-55.42501709 58.67256348 -54.91253418 57.78262695 -54.38452148 56.86572266 C-50.23341088 49.70583992 -46.02675597 42.57798388 -41.74203491 35.4972229 C-40.70285264 33.77543727 -39.67421646 32.04730078 -38.64575195 30.3190918 C-38.00081787 29.26246338 -37.35588379 28.20583496 -36.69140625 27.1171875 C-36.12365479 26.1772998 -35.55590332 25.23741211 -34.97094727 24.26904297 C-32.92916963 21.62102399 -31.10792099 20.34650178 -28.125 18.875 C-26.02734375 18.625 -26.02734375 18.625 -24.0625 18.875 C-23.08603516 18.9678125 -23.08603516 18.9678125 -22.08984375 19.0625 C-17.60817756 20.91575361 -15.25593719 26.17203211 -13.015625 30.25 C-12.43353271 31.30405029 -11.85144043 32.35810059 -11.25170898 33.4440918 C-10.63239502 34.5762915 -10.01308105 35.70849121 -9.375 36.875 C-8.71934152 38.06383943 -8.06316288 39.25239212 -7.40649414 40.44067383 C-4.21046371 46.23031204 -1.03706877 52.03219304 2.1257019 57.84005737 C3.54884372 60.45141999 4.97636009 63.06037957 6.4041748 65.66918945 C7.41410215 67.51962928 8.41665873 69.37392923 9.41894531 71.22851562 C14.56065717 81.94505038 14.56065717 81.94505038 22.875 89.875 C27.87191647 90.25212577 30.86567725 89.96790612 34.875 86.875 C37.585033 82.8099505 37.75496818 79.55774812 36.875 74.875 C34.8947952 70.28946102 32.33963938 66.07282286 29.75 61.8125 C29.0188943 60.57767676 28.28967157 59.34173688 27.56225586 58.10473633 C26.07418429 55.5801616 24.57597202 53.06207321 23.06884766 50.54882812 C20.39964593 46.09153175 17.7991275 41.59509953 15.19702148 37.09838867 C12.94757278 33.21717671 10.67725709 29.34843328 8.40429688 25.48095703 C6.9666246 23.03113042 5.53748376 20.57650264 4.109375 18.12109375 C3.30264515 16.74706582 2.49539774 15.37334156 1.6875 14 C1.33695557 13.39309326 0.98641113 12.78618652 0.62524414 12.16088867 C-1.10658514 9.24174104 -2.23540736 7.80139509 -5.125 5.875 C-14.67250794 4.90406699 -20.7275036 9.3268777 -28.125 14.875 C-27.78674231 9.46287698 -24.6653133 5.73260552 -21.125 1.875 C-15.2315854 -2.51079691 -6.79386868 -2.48655594 0 0 Z " fill="#FFBD59" transform="translate(169.125,202.125)"/>
<path d="M0 0 C2.375 0.6875 2.375 0.6875 3.375 1.6875 C3.5625 4.625 3.5625 4.625 3.375 7.6875 C2.715 8.3475 2.055 9.0075 1.375 9.6875 C1.54483391 11.73742046 1.54483391 11.73742046 2.10571289 14.08251953 C3.15335803 21.40886889 3.60634769 29.09092018 -0.85642242 35.43919373 C-4.78098437 40.0584076 -9.34608224 43.99717223 -13.94140625 47.9296875 C-14.65726395 48.54732216 -15.37312164 49.16495682 -16.110672 49.80130768 C-19.11564137 52.38786215 -22.13027643 54.96264751 -25.15554428 57.52543259 C-56.06041054 83.10994545 -56.06041054 83.10994545 -69.74407387 119.27099228 C-70.08732968 124.42827768 -69.98216457 129.52833827 -69.75 134.6875 C-69.72900867 135.38809288 -69.70801735 136.08868576 -69.68638992 136.81050873 C-69.22785236 151.55130278 -67.0998551 164.25273424 -56.1796875 174.9375 C-48.64889326 181.86326484 -42.63583346 184.03296735 -32.49291992 183.73657227 C-30.62762732 183.70080359 -28.76232635 183.66546924 -26.89701843 183.63050842 C-25.42171945 183.59785731 -25.42171945 183.59785731 -23.91661644 183.56454659 C-18.66428665 183.46049965 -13.41133705 183.42978845 -8.15820312 183.38867188 C-1.49251175 183.33508808 5.16993646 183.25967736 11.83374023 183.08764648 C17.23634099 182.9501325 22.63414844 182.89794221 28.03842735 182.90028191 C30.08184927 182.88621944 32.12532097 182.84228035 34.16736794 182.76602364 C50.6446877 182.17571286 50.6446877 182.17571286 55.25058937 186.4129734 C57.02436488 188.63568311 58.72226721 190.90658223 60.42626953 193.18310547 C65.14556037 199.00339711 69.63872729 201.99878742 77.03847218 202.99765515 C88.80741632 204.1181786 100.67977168 203.81864415 112.48451543 203.61312604 C118.04443691 203.53442667 123.60406173 203.5529884 129.16441345 203.56077576 C139.66932854 203.56094326 150.17165952 203.47495907 160.6758427 203.35720628 C172.64447937 203.22729203 184.61278173 203.19465175 196.58202565 203.16975892 C221.18081136 203.1164426 245.77753414 202.94234335 270.375 202.6875 C270.375 204.0075 270.375 205.3275 270.375 206.6875 C244.4621183 207.08551557 218.54969794 207.38483523 192.63436985 207.56830692 C180.59984921 207.6557811 168.56723316 207.77492086 156.53393555 207.9699707 C146.03931964 208.13999795 135.54608346 208.24922412 125.0501284 208.28700441 C119.49727722 208.30907458 113.94837113 208.36051206 108.39679146 208.48491096 C71.43622255 209.28226588 71.43622255 209.28226588 63.55708313 202.8506012 C61.37460179 200.61194837 59.49899099 198.31413334 57.62965393 195.81068039 C54.53773382 191.67309615 52.59319496 189.25470116 47.39848328 188.16069031 C41.66461168 187.50597655 35.97603404 187.71203875 30.22265625 187.95703125 C28.14432139 187.98373808 26.06588071 188.00310812 23.9874115 188.01554871 C18.57116658 188.0685804 13.16281528 188.22526439 7.74945068 188.40362549 C2.21216848 188.56475496 -3.32616101 188.61566437 -8.86523438 188.68164062 C-16.92438828 188.80006841 -24.98256675 188.94079796 -33.03881836 189.19067383 C-33.88388947 189.21019104 -34.72896057 189.22970825 -35.59963989 189.24981689 C-40.08509714 189.23494661 -40.08509714 189.23494661 -43.625 191.6875 C-46.125 191.9375 -46.125 191.9375 -48.625 191.6875 C-49.285 191.0275 -49.945 190.3675 -50.625 189.6875 C-50.48336426 188.80497559 -50.34172852 187.92245117 -50.19580078 187.01318359 C-50.27558087 183.69788933 -50.27558087 183.69788933 -52.27044678 182.07061768 C-53.00217102 181.51315857 -53.73389526 180.95569946 -54.48779297 180.38134766 C-62.49522669 174.2676595 -68.93804362 168.40707772 -70.36816406 158.01464844 C-71.17177093 150.61085223 -71.08073684 143.16239418 -70.86181641 135.72851562 C-70.74769888 131.83167783 -70.78788815 127.95390953 -70.8696785 124.05689621 C-71.32605217 97.95929846 -71.32605217 97.95929846 -63.1388855 88.96572876 C-60.46135896 86.4846879 -57.70052121 84.27203145 -54.71282959 82.17669678 C-51.12069368 79.61451582 -47.8999315 76.63744815 -44.625 73.6875 C-43.87459442 73.01602936 -43.12418884 72.34455872 -42.3510437 71.65274048 C-36.9857791 66.82294397 -31.72493816 61.89141226 -26.50439453 56.90576172 C-24.59139402 55.09981398 -22.65735122 53.31588854 -20.70263672 51.55517578 C-8.2822544 40.90280941 -8.2822544 40.90280941 -2.30859375 26.28515625 C-2.06386233 20.75333842 -2.16051349 15.05980131 -3.625 9.6875 C-4.285 9.0275 -4.945 8.3675 -5.625 7.6875 C-5.9375 4.6875 -5.9375 4.6875 -5.625 1.6875 C-2.625 -0.3125 -2.625 -0.3125 0 0 Z " fill="#E3B43C" transform="translate(162.625,122.3125)"/>
<path d="M0 0 C4.4192231 0 6.66431015 1.28050768 9.75 4.25 C14.1743214 8.7540389 15.31044385 13.07180064 15.4375 19.3125 C15.37529405 24.81772673 14.45528165 27.97629113 11.1796875 32.34375 C9.66914262 34.46451499 9.24107985 36.42848162 9 39 C9.94875 38.938125 10.8975 38.87625 11.875 38.8125 C12.90625 38.874375 13.9375 38.93625 15 39 C19.96178061 46.44267091 20.04423723 57.3653932 19 66 C17.60546875 67.91015625 17.60546875 67.91015625 16 69 C15.34 69 14.68 69 14 69 C14.15597656 69.76183594 14.31195313 70.52367187 14.47265625 71.30859375 C16.93734208 84.38285433 16.93734208 84.38285433 15 90 C12.54972455 92.92837797 10.80079122 94.56680768 7.03515625 95.47265625 C3.19242007 95.76030829 1.08897023 95.04613271 -2.375 93.25 C-6.52990524 89.37735734 -6.50487515 83.35247035 -7 78 C-8.32 78 -9.64 78 -11 78 C-11.06703125 78.75539063 -11.1340625 79.51078125 -11.203125 80.2890625 C-12.24729571 83.8412903 -13.5932671 84.53512905 -16.75 86.375 C-18.04164063 87.16003906 -18.04164063 87.16003906 -19.359375 87.9609375 C-22 89 -22 89 -24.46484375 89.17578125 C-28.63196135 87.24311191 -30.43853106 83.62543008 -32.8125 79.8125 C-33.31458984 79.05646484 -33.81667969 78.30042969 -34.33398438 77.52148438 C-36.44788322 74.20539544 -37.88599719 71.56272319 -38.671875 67.68359375 C-38 65 -38 65 -35.62109375 63.015625 C-34.57050781 62.43296875 -33.51992188 61.8503125 -32.4375 61.25 C-26.90400325 57.8687799 -23.9259193 54.64828536 -20.53515625 49.19140625 C-19.0063381 47.00904751 -17.84435669 45.99519977 -15.5625 44.6875 C-14.716875 44.130625 -13.87125 43.57375 -13 43 C-12.49758678 40.3295947 -12.49758678 40.3295947 -13 38 C-14.051875 37.7215625 -14.051875 37.7215625 -15.125 37.4375 C-20.05358691 34.97320654 -23.061219 31.00557759 -25.375 26.0625 C-26.95417621 18.32453655 -26.0019027 12.78583501 -22 6 C-20.67578125 4.17578125 -20.67578125 4.17578125 -19 3 C-16.525 3.495 -16.525 3.495 -14 4 C-13.34 9.61 -12.68 15.22 -12 21 C-4.66765401 22.62848582 -4.66765401 22.62848582 -0.953125 20.60546875 C1.18239463 17.75668556 1.26756419 17.28674115 1.015625 13.92578125 C0.78757027 12.38376003 0.53132079 10.84569829 0.25 9.3125 C-0.19587807 6.54396115 -0.61038829 3.77745923 -1 1 C-0.67 0.67 -0.34 0.34 0 0 Z M4 6 C4.15339844 7.02480469 4.30679688 8.04960937 4.46484375 9.10546875 C5.78129232 19.5749851 5.78129232 19.5749851 3.82421875 23.14453125 C0.4783623 25.81352478 -2.47906442 26.26552068 -6.6875 25.9375 C-9.77664031 25.44916343 -12.46436084 24.86808235 -15 23 C-16.046875 19.9609375 -16.046875 19.9609375 -16.75 16.375 C-16.99234375 15.18648437 -17.2346875 13.99796875 -17.484375 12.7734375 C-17.65453125 11.85820312 -17.8246875 10.94296875 -18 10 C-20.26432237 10.87237477 -20.26432237 10.87237477 -21.1875 13.5625 C-22.49337446 19.08735349 -21.95257958 23.13147852 -19.375 28.1875 C-17.32948601 30.6098192 -15.95728692 31.78053256 -13.375 33.4375 C-9.4848504 35.97062067 -9.24675832 38.59478726 -8 43 C-5.02812283 44.46358065 -5.02812283 44.46358065 -2 45 C-1 46 -1 46 -0.625 48.375 C-0.74875 49.24125 -0.8725 50.1075 -1 51 C-3.5234375 52.6640625 -3.5234375 52.6640625 -6 54 C-5.57374146 61.36398381 -4.70975523 68.64533977 -3.625 75.9375 C-3.51115967 76.75387939 -3.39731934 77.57025879 -3.2800293 78.41137695 C-2.59351693 82.8496634 -1.86414878 86.38622215 1 90 C4.37898812 91.15029383 6.07480204 91.45009631 9.3125 89.875 C11.43844076 87.5128436 11.61340938 86.1454419 12 83 C11.76785768 79.73471357 11.76785768 79.73471357 11.1875 76.375 C11.01605469 75.24835938 10.84460938 74.12171875 10.66796875 72.9609375 C10.14837633 69.83473305 10.14837633 69.83473305 8 67 C7.57935109 64.9709876 7.23158524 62.92618275 6.9375 60.875 C6.68226276 57.12083165 6.68226276 57.12083165 5 54 C2.85395041 34.4822437 2.85395041 34.4822437 8 27.75 C8.81791016 26.80447266 8.81791016 26.80447266 9.65234375 25.83984375 C11.73557647 22.99577821 11.65181422 20.50266391 11.39453125 17.07421875 C10.39195504 11.8032488 8.26571639 9.01420455 4 6 Z M9 43 C9 43.66 9 44.32 9 45 C10.32 44.67 11.64 44.34 13 44 C11.68 43.67 10.36 43.34 9 43 Z M-16 51 C-18.50702343 54.22475997 -20.78653652 57.56847674 -23 61 C-22.26290216 62.61013585 -21.50974143 64.21292391 -20.75 65.8125 C-20.33234375 66.70582031 -19.9146875 67.59914063 -19.484375 68.51953125 C-17.86591266 71.224067 -16.77652281 72.51820325 -14 74 C-10.83267579 74.25086724 -10.83267579 74.25086724 -8 74 C-8.14213297 72.10388566 -8.28886907 70.20811606 -8.4375 68.3125 C-8.51871094 67.25675781 -8.59992188 66.20101562 -8.68359375 65.11328125 C-8.96451681 62.34913703 -9.40156852 59.71054259 -10 57 C-10.928125 57.99 -10.928125 57.99 -11.875 59 C-14 61 -14 61 -16 61 C-15.34194763 57.44651721 -14.25753134 54.84012008 -12 52 C-9.37119482 50.69079268 -6.82135279 49.87878202 -4 49 C-4.33 48.34 -4.66 47.68 -5 47 C-9.66379243 46.45131854 -12.68363411 47.82713071 -16 51 Z M8 50 C8 50.66 8 51.32 8 52 C9.65 52 11.3 52 13 52 C13.33 51.01 13.66 50.02 14 49 C11.84365964 49 10.07553648 49.4465236 8 50 Z M11 56 C11 56.66 11 57.32 11 58 C11.99 58 12.98 58 14 58 C14 57.34 14 56.68 14 56 C13.01 56 12.02 56 11 56 Z M11 63 C11 63.66 11 64.32 11 65 C12.32 64.67 13.64 64.34 15 64 C13.68 63.67 12.36 63.34 11 63 Z M-29 64 C-30.65 65.65 -32.3 67.3 -34 69 C-30.7 74.28 -27.4 79.56 -24 85 C-21.03 83.35 -18.06 81.7 -15 80 C-15.71901361 76.86974337 -15.71901361 76.86974337 -18.25 75.375 C-21.97376303 72.15902284 -23.81415874 68.35307961 -26 64 C-26.99 64 -27.98 64 -29 64 Z " fill="#E3B43C" transform="translate(394,178)"/>
<path d="M0 0 C7 1 7 1 9.40911865 3.14836121 C11.32553841 6.58352433 11.48409481 8.70460327 11.45410156 12.6262207 C11.45468567 13.27068649 11.45526978 13.91515228 11.45587158 14.57914734 C11.45309954 16.69525272 11.42205361 18.80992405 11.390625 20.92578125 C11.38315937 22.39836355 11.37746796 23.87095583 11.37347412 25.34355164 C11.35824282 29.20878806 11.31898363 33.07341785 11.2746582 36.93841553 C11.23365082 40.88659459 11.2154515 44.83487222 11.1953125 48.78320312 C11.15248605 56.52241119 11.08426624 64.26112041 11 72 C12.65 72 14.3 72 16 72 C16 55.17 16 38.34 16 21 C19.63 21 23.26 21 27 21 C27.27180993 28.44097102 27.49161965 35.87920549 27.62174606 43.32409763 C27.68422539 46.78183284 27.76882095 50.23598092 27.90527344 53.69165039 C28.0613811 57.67028791 28.11895645 61.64750714 28.171875 65.62890625 C28.23381042 66.86145645 28.29574585 68.09400665 28.35955811 69.36390686 C28.36236102 72.95324403 28.237837 75.62604004 27 79 C23.40340563 82.33236148 19.66316789 84.48944382 15 86 C11 85 11 85 0 79 C0 52.93 0 26.86 0 0 Z " fill="#FFDE59" transform="translate(224,214)"/>
<path d="M0 0 C24.09 0 48.18 0 73 0 C71.55980371 4.32058886 70.48348837 7.19009732 68.21484375 10.92578125 C67.68439453 11.80427734 67.15394531 12.68277344 66.60742188 13.58789062 C65.78081055 14.93657227 65.78081055 14.93657227 64.9375 16.3125 C64.38255859 17.23095703 63.82761719 18.14941406 63.25585938 19.09570312 C59.16870301 25.83129699 59.16870301 25.83129699 58 27 C54.89748799 27.08874135 51.8173188 27.11518455 48.71484375 27.09765625 C47.78402481 27.0962413 46.85320587 27.09482635 45.8941803 27.09336853 C42.90858809 27.08775172 39.92306971 27.0751964 36.9375 27.0625 C34.91862087 27.05748716 32.89974057 27.05292388 30.88085938 27.04882812 C25.92054428 27.03777683 20.96028468 27.02050095 16 27 C16.828125 20.234375 16.828125 20.234375 18.375 18.125 C21.97703443 15.63128385 25.40667488 15.88387194 29.63671875 15.90234375 C31.58481445 15.90717773 31.58481445 15.90717773 33.57226562 15.91210938 C34.94401108 15.92046469 36.31575587 15.92892963 37.6875 15.9375 C39.07096195 15.94251665 40.45442563 15.94707927 41.83789062 15.95117188 C45.22530395 15.96297471 48.61263033 15.97943981 52 16 C52.33 14.68 52.66 13.36 53 12 C35.51 11.67 18.02 11.34 0 11 C0 7.37 0 3.74 0 0 Z " fill="#FFBD59" transform="translate(224,198)"/>
<path d="M0 0 C0.7528125 0.05285156 1.505625 0.10570312 2.28125 0.16015625 C7.45775924 1.9737572 10.05196596 8.32667952 12.6953125 12.86328125 C13.27962036 13.85442932 13.27962036 13.85442932 13.87573242 14.86560059 C14.70313131 16.26960903 15.5288797 17.67459126 16.35308838 19.08047485 C18.47750671 22.70413779 20.61316456 26.32114906 22.75 29.9375 C23.1650882 30.64034622 23.58017639 31.34319244 24.00784302 32.06733704 C27.50810188 37.98059291 31.10269214 43.82955702 34.82080078 49.60864258 C38.71902164 55.70510154 39.18228991 60.81244393 38.5 67.9375 C36.92887499 73.56894205 34.00949511 76.85665132 29.18359375 80.02734375 C24.02468821 82.81626484 17.8590532 82.86433893 12.27734375 81.32421875 C2.69223271 77.13188694 -1.87550039 66.16980321 -6.8125 57.5625 C-7.44478516 56.47066406 -8.07707031 55.37882812 -8.72851562 54.25390625 C-14.65038849 44.00963743 -14.65038849 44.00963743 -14.6875 39.4375 C-14.70167969 38.6434375 -14.71585937 37.849375 -14.73046875 37.03125 C-14.5 34.9375 -14.5 34.9375 -12.5 32.9375 C-8.92221153 38.12503364 -5.56353455 43.424307 -2.3359375 48.8359375 C-1.97340881 49.44221985 -1.61088013 50.0485022 -1.23736572 50.67315674 C0.26825463 53.19342889 1.77202441 55.71467973 3.26464844 58.24267578 C4.36968837 60.1115353 5.48475708 61.97409168 6.6015625 63.8359375 C7.25463379 64.93599121 7.90770508 66.03604492 8.58056641 67.16943359 C11.30016251 71.09143571 13.26444648 72.61717131 17.875 73.8125 C22.11562058 73.9587283 24.01192459 73.31573324 27.5 70.9375 C30.27694396 67.89181953 30.49580577 66.23259405 30.5546875 62.08984375 C29.65270931 55.08026539 25.41248193 49.44877816 21.6875 43.625 C20.91430887 42.3899829 20.14283841 41.15388698 19.37304688 39.91674805 C17.82721444 37.43487074 16.27430341 34.95765638 14.71630859 32.48339844 C11.56074892 27.45568876 8.53004552 22.35400642 5.5 17.25 C4.54321935 15.64100277 3.58504878 14.0328306 2.625 12.42578125 C2.23570312 11.77134033 1.84640625 11.11689941 1.4453125 10.44262695 C0.58410327 8.94736438 0.58410327 8.94736438 -0.5 7.9375 C-3.77993617 7.3775109 -5.81990565 7.51869863 -8.67578125 9.27734375 C-10.66652375 10.7801245 -12.60232204 12.31917565 -14.5 13.9375 C-13.05987652 8.89706782 -11.26246184 3.69172155 -6.6484375 0.76171875 C-4.19652667 -0.17892341 -2.60513217 -0.24534635 0 0 Z " fill="#FFDB59" transform="translate(333.5,222.0625)"/>
<path d="M0 0 C3.05318676 1.0519383 4.20990116 2.95259356 5.859375 5.640625 C6.4575 6.5275 7.055625 7.414375 7.671875 8.328125 C8.2596875 9.4728125 8.2596875 9.4728125 8.859375 10.640625 C8.529375 11.300625 8.199375 11.960625 7.859375 12.640625 C7.17875 12.00125 6.498125 11.361875 5.796875 10.703125 C2.39528661 8.3147757 -0.04496201 7.96185347 -4.140625 7.640625 C-9.27672728 15.03846174 -13.85769893 22.7485669 -18.4362793 30.49707031 C-19.70143166 32.63775981 -20.97052696 34.77607225 -22.24023438 36.9140625 C-24.21513323 40.24326824 -26.17839446 43.5790684 -28.13247681 46.92053223 C-29.02816838 48.44875259 -29.93185192 49.97228257 -30.83666992 51.49511719 C-31.29275635 52.28047852 -31.74884277 53.06583984 -32.21875 53.875 C-32.78384277 54.83744629 -32.78384277 54.83744629 -33.36035156 55.81933594 C-34.93970289 59.50580681 -34.34367538 61.84151853 -33.140625 65.640625 C-30.04130736 69.1827023 -28.25406456 70.48435278 -23.578125 71.140625 C-19.7943474 70.59025735 -18.18739257 69.91476037 -15.140625 67.640625 C-13.48260108 65.26998747 -12.04522216 62.99701874 -10.63671875 60.48828125 C-10.23155533 59.79173935 -9.82639191 59.09519745 -9.40895081 58.37754822 C-8.12045761 56.15918128 -6.84830411 53.93202075 -5.578125 51.703125 C-4.30238359 49.47907043 -3.02314293 47.25723098 -1.73658752 45.03941345 C-0.93842255 43.66210085 -0.14669037 42.28103397 0.6375885 40.89576721 C2.69717781 37.32679834 4.78249128 34.39298514 7.859375 31.640625 C9.60314904 35.12817308 9.30330991 38.82710083 8.859375 42.640625 C7.86193172 45.45135512 6.43713545 47.86786841 4.859375 50.390625 C4.45219238 51.07237793 4.04500977 51.75413086 3.62548828 52.45654297 C2.78896147 53.85140355 1.94408803 55.24129345 1.09082031 56.62597656 C-0.06498562 58.51687874 -1.17565508 60.42655593 -2.2734375 62.3515625 C-10.2421875 76.0078125 -10.2421875 76.0078125 -18.140625 78.640625 C-24.90405225 79.37342973 -30.62009872 78.84849281 -36.140625 74.640625 C-40.25625556 70.22809572 -41.93778777 66.32821827 -42.390625 60.328125 C-41.89037357 52.94941642 -37.58012355 46.62006631 -33.953125 40.328125 C-33.44064209 39.43818848 -32.92815918 38.54825195 -32.40014648 37.63134766 C-28.24903588 30.47146492 -24.04238097 23.34360888 -19.75765991 16.2628479 C-18.71847764 14.54106227 -17.68984146 12.81292578 -16.66137695 11.0847168 C-16.01644287 10.02808838 -15.37150879 8.97145996 -14.70703125 7.8828125 C-14.13927979 6.9429248 -13.57152832 6.00303711 -12.98657227 5.03466797 C-9.29840461 0.25141548 -5.74289927 -0.99313296 0 0 Z " fill="#FFDB59" transform="translate(147.140625,221.359375)"/>
<path d="M0 0 C11.88 0 23.76 0 36 0 C36 3.63 36 7.26 36 11 C28.08 11.495 28.08 11.495 20 12 C20.33 13.32 20.66 14.64 21 16 C25.95 16 30.9 16 36 16 C36 19.63 36 23.26 36 27 C28.74 27 21.48 27 14 27 C9.25 18.4375 9.25 18.4375 7.77832031 15.78295898 C7.38225586 15.06954346 6.98619141 14.35612793 6.578125 13.62109375 C6.14564453 12.8410498 5.71316406 12.06100586 5.26757812 11.25732422 C4.09405279 9.16749078 2.88670997 7.10112559 1.671875 5.03515625 C0 2 0 2 0 0 Z " fill="#FFBD59" transform="translate(178,198)"/>
<path d="M0 0 C2.875 -0.125 2.875 -0.125 6 0 C8 2 8 2 8.25 4.5 C8 7 8 7 6 9 C4.42109985 9.3554187 4.42109985 9.3554187 2.81030273 9.71801758 C-1.94875784 10.99295387 -4.63984172 14.02497036 -7.96484375 17.51171875 C-8.60184708 18.15816849 -9.2388504 18.80461823 -9.89515686 19.47065735 C-11.92146806 21.53140034 -13.92992739 23.60851272 -15.9375 25.6875 C-17.94481319 27.745123 -19.95572888 29.79912008 -21.96913147 31.8507843 C-23.21679269 33.1244042 -24.46045917 34.40195558 -25.69920349 35.68424988 C-30.74678723 40.87356899 -36.03579076 45.69161327 -41.75041199 50.14189148 C-52.55876881 58.6420145 -62.57592156 66.95006318 -64.37761307 81.23165894 C-65.05581384 88.71768599 -64.7974072 96.19471428 -64.45361328 103.69073486 C-64.34821895 106.78669335 -64.38605282 109.87456462 -64.42177963 112.97158813 C-64.86309961 131.57855251 -64.86309961 131.57855251 -56.7069397 147.62988281 C-52.19665289 151.89673635 -48.29842379 155.16307634 -42 156 C-40 158 -40 158 -39.75 160.5 C-40 163 -40 163 -42 165 C-44.4375 165.4375 -44.4375 165.4375 -47 165 C-48.79363409 162.69389903 -49.83893966 160.84513235 -50.38748169 157.96676636 C-51.29460917 155.05402435 -53.51607613 154.16102987 -55.90994263 152.46139526 C-62.94756395 147.01005061 -65.79658932 141.33624048 -67.01918411 132.52231407 C-67.89877246 124.81865075 -68.10516618 117.08976668 -68.11953735 109.34194183 C-68.1231875 107.69353005 -68.13533207 106.04511579 -68.15585327 104.3968277 C-68.39161441 85.4481374 -68.07060143 68.6683401 -54.88870239 53.822052 C-48.31396916 47.10114128 -40.99150543 41.20769408 -33.21289062 35.94091797 C-25.0680969 30.41863828 -18.12080464 23.37631108 -11.125 16.5 C-10.27164063 15.68402344 -9.41828125 14.86804688 -8.5390625 14.02734375 C-4.00619374 9.55902534 -0.94538574 6.39424536 0 0 Z " fill="#E3B43C" transform="translate(147,149)"/>
<path d="M0 0 C2.9375 0.1875 2.9375 0.1875 3.9375 1.1875 C4.125 4.125 4.125 4.125 3.9375 7.1875 C1.9375 9.1875 1.9375 9.1875 -0.5625 9.4375 C-3.0625 9.1875 -3.0625 9.1875 -5.0625 7.1875 C-21.20170521 2.85877398 -46.59617703 0.3675094 -61.8515625 8.09356689 C-71.08759878 13.5729687 -78.63727155 21.42205625 -85.875 29.25 C-86.36208561 29.77372822 -86.84917122 30.29745644 -87.351017 30.83705521 C-99.94649485 43.44726403 -99.94649485 43.44726403 -107.0625 59.1875 C-108.0625 60.1875 -108.0625 60.1875 -110.5 60.375 C-113.0625 60.1875 -113.0625 60.1875 -115.0625 58.1875 C-115.1875 55.0625 -115.1875 55.0625 -115.0625 52.1875 C-113.92554687 51.90535645 -112.78859375 51.62321289 -111.6171875 51.33251953 C-105.44388514 48.99977039 -102.1852256 43.8834468 -98.1875 38.8671875 C-67.33572618 1.99145308 -67.33572618 1.99145308 -45.640625 -0.0078125 C-32.78654779 -0.74175007 -19.84249435 0.28271499 -7.1194458 2.15643311 C-6.10125763 2.17181122 -6.10125763 2.17181122 -5.0625 2.1875 C-3.0625 0.1875 -3.0625 0.1875 0 0 Z " fill="#E3B43C" transform="translate(217.0625,166.8125)"/>
<path d="M0 0 C3.91641711 -0.11618764 7.83239101 -0.18724654 11.75 -0.25 C13.41675781 -0.30027344 13.41675781 -0.30027344 15.1171875 -0.3515625 C16.18710937 -0.36445313 17.25703125 -0.37734375 18.359375 -0.390625 C19.34389648 -0.41157227 20.32841797 -0.43251953 21.34277344 -0.45410156 C24 0 24 0 25.83467484 1.99594498 C28.51491356 4.47656358 29.70275724 4.50475398 33.3024292 4.51898193 C34.37652542 4.53289474 35.45062164 4.54680756 36.55726624 4.56114197 C38.31701027 4.55359642 38.31701027 4.55359642 40.11230469 4.54589844 C41.97123604 4.56140495 41.97123604 4.56140495 43.86772156 4.57722473 C47.26226772 4.60166291 50.65599385 4.60848936 54.05057049 4.60750484 C57.59940949 4.61063352 61.14808431 4.63625071 64.69683838 4.65948486 C71.41511198 4.70005206 78.13328851 4.72038719 84.85166574 4.73345876 C92.50103499 4.74932643 100.15023897 4.787741 107.79951239 4.82805204 C123.53295914 4.91046076 139.26637315 4.9645467 155 5 C155 5.99 155 6.98 155 8 C138.11922724 8.09341512 121.23853506 8.16396524 104.35756302 8.20724869 C96.51953749 8.22787957 88.68167249 8.25601003 80.84375 8.30175781 C74.01271164 8.34160971 67.18178953 8.36742899 60.35063815 8.37635398 C56.73307579 8.3815716 53.11584603 8.39384524 49.4983902 8.42292023 C45.46134141 8.45510487 41.42487194 8.45596049 37.38769531 8.45410156 C35.58587296 8.47567322 35.58587296 8.47567322 33.74765015 8.49768066 C32.64831146 8.49218201 31.54897278 8.48668335 30.4163208 8.48101807 C29.46134327 8.48470524 28.50636574 8.48839241 27.52244949 8.49219131 C24.27957257 7.85942707 23.17549264 6.4082745 21 4 C18.60238864 3.36710194 18.60238864 3.36710194 16.015625 3.390625 C15.08105469 3.35839844 14.14648438 3.32617188 13.18359375 3.29296875 C12.21550781 3.27878906 11.24742187 3.26460938 10.25 3.25 C9.26644531 3.22035156 8.28289062 3.19070313 7.26953125 3.16015625 C4.84627224 3.08957589 2.42396846 3.03682299 0 3 C0 2.01 0 1.02 0 0 Z " fill="#E3B43C" transform="translate(251,310)"/>
<path d="M0 0 C1.485 0.1546875 1.485 0.1546875 3 0.3125 C5 3.3125 5 3.3125 4.6875 5.9375 C4 8.3125 4 8.3125 3 9.3125 C0.0625 9.5 0.0625 9.5 -3 9.3125 C-3.99 8.3225 -3.99 8.3225 -5 7.3125 C-15.37039683 5.56742459 -26.30962661 5.65087744 -36.8125 5.375 C-37.96519945 5.34347902 -37.96519945 5.34347902 -39.14118576 5.31132126 C-63.72054087 4.48885278 -63.72054087 4.48885278 -84.9839325 15.40489197 C-93.15475123 23.35173464 -100.14266337 32.17141266 -103 43.3125 C-104 44.3125 -104 44.3125 -106.9375 44.5 C-110 44.3125 -110 44.3125 -112 42.3125 C-112.25 39.8125 -112.25 39.8125 -112 37.3125 C-110 35.3125 -110 35.3125 -106.6784668 34.60766602 C-102.07389709 32.98642474 -100.62323897 30.53239876 -98.14453125 26.58984375 C-90.65608969 16.07837623 -82.31759085 5.45837391 -69.16912842 2.43023682 C-51.41977364 -0.38742279 -32.69171447 0.80543122 -14.82749939 1.92573547 C-13.56216873 2.001483 -12.29683807 2.07723053 -10.99316406 2.15527344 C-9.88007874 2.23243591 -8.76699341 2.30959839 -7.62017822 2.38909912 C-4.06979211 2.28530601 -3.63493753 0.37863933 0 0 Z " fill="#E3B43C" transform="translate(232,174.6875)"/>
<path d="M0 0 C0.99 0.103125 1.98 0.20625 3 0.3125 C5 3.3125 5 3.3125 4.625 6 C4.41875 6.763125 4.2125 7.52625 4 8.3125 C3.01 8.6425 2.02 8.9725 1 9.3125 C1.0611603 19.30042348 1.13822949 29.28808456 1.23571491 39.27572346 C1.28047741 43.91320884 1.3197204 48.55060517 1.34643555 53.18823242 C1.3724101 57.66229039 1.41277054 62.13600675 1.46318626 66.60985374 C1.47989469 68.31826726 1.49138415 70.02673991 1.49761391 71.73522377 C1.50721208 74.12503655 1.53521826 76.51396752 1.56762695 78.90356445 C1.56619186 79.61278549 1.56475677 80.32200653 1.5632782 81.05271912 C1.59974402 84.90874638 1.59974402 84.90874638 3.53483582 88.11540222 C4.26009209 88.70796562 4.26009209 88.70796562 5 89.3125 C4.875 91.875 4.875 91.875 4 94.3125 C1 96.3125 1 96.3125 -1.6875 95.9375 C-2.450625 95.73125 -3.21375 95.525 -4 95.3125 C-5.125 89.5625 -5.125 89.5625 -4 87.3125 C-3.34 87.3125 -2.68 87.3125 -2 87.3125 C-2.08426071 77.17697499 -2.17908788 67.04160982 -2.28752708 56.90631294 C-2.33754143 52.20043021 -2.38387083 47.49457049 -2.421875 42.78857422 C-2.45866313 38.24974907 -2.50500504 33.71111412 -2.55806351 29.17245102 C-2.57664199 27.43808187 -2.59173709 25.70367191 -2.60334396 23.9692421 C-2.62014765 21.54586423 -2.64916748 19.12292527 -2.68115234 16.69970703 C-2.68331253 15.97753998 -2.68547272 15.25537292 -2.68769836 14.51132202 C-2.64495889 10.46319195 -2.64495889 10.46319195 -5 7.3125 C-5.25 4.8125 -5.25 4.8125 -5 2.3125 C-3 0.3125 -3 0.3125 0 0 Z " fill="#E3B43C" transform="translate(76,206.6875)"/>
<path d="M0 0 C3.63525215 2.60789828 4.83397068 4.0702358 5.625 8.5 C4.82883761 12.95850936 3.69186542 14.40783917 0 17 C-3.96476406 17.62601538 -5.99762021 17.65946039 -9.375 15.4375 C-11.55226285 12.17160572 -12 9.92016134 -12 6 C-8.72400863 0.8035999 -6.13119148 -0.72131664 0 0 Z M-8 6 C-8.16687448 8.58354218 -8.16687448 8.58354218 -8 11 C-6.83040013 10.02433888 -5.66438823 9.044375 -4.5 8.0625 C-3.8503125 7.51722656 -3.200625 6.97195313 -2.53125 6.41015625 C-2.0259375 5.94480469 -1.520625 5.47945313 -1 5 C-1 4.67 -1 4.34 -1 4 C-4.95457848 3.65176193 -4.95457848 3.65176193 -8 6 Z M0 6 C-0.61875 6.78375 -1.2375 7.5675 -1.875 8.375 C-4 11 -4 11 -6 13 C-3.62694422 13.41780879 -3.62694422 13.41780879 -1 13 C0.8624438 10.59141286 0.8624438 10.59141286 2 8 C1.34 7.34 0.68 6.68 0 6 Z " fill="#E3B43C" transform="translate(242,303)"/>
<path d="M0 0 C3.56943715 0.30595176 5.03014419 1.02424641 7.875 3.3125 C10 6 10 6 9.8125 8.3125 C9.544375 8.869375 9.27625 9.42625 9 10 C5.17647894 8.4422692 2.70794407 6.08404742 0 3 C0 2.01 0 1.02 0 0 Z " fill="#E3B43C" transform="translate(185,315)"/>
<path d="M0 0 C2.912575 0.08566397 4.56798024 0.57910955 6.66796875 2.625 C8.16091772 4.38391375 9.60436262 6.16313019 11 8 C10.67 8.66 10.34 9.32 10 10 C5.86360664 8.40907948 2.76786752 5.39525082 0 2 C0 1.34 0 0.68 0 0 Z " fill="#E3B43C" transform="translate(196,315)"/>
<path d="M0 0 C3.35250701 0.57575664 4.93818629 1.59306263 7.25 4.0625 C8.03117188 4.88427734 8.03117188 4.88427734 8.828125 5.72265625 C9.21484375 6.14417969 9.6015625 6.56570313 10 7 C9.67 7.99 9.34 8.98 9 10 C5.17647894 8.4422692 2.70794407 6.08404742 0 3 C0 2.01 0 1.02 0 0 Z " fill="#E3B43C" transform="translate(208,315)"/>
<path d="M0 0 C3.35250701 0.57575664 4.93818629 1.59306263 7.25 4.0625 C8.03117188 4.88427734 8.03117188 4.88427734 8.828125 5.72265625 C9.21484375 6.14417969 9.6015625 6.56570313 10 7 C9.67 7.99 9.34 8.98 9 10 C5.17647894 8.4422692 2.70794407 6.08404742 0 3 C0 2.01 0 1.02 0 0 Z " fill="#E3B43C" transform="translate(174,315)"/>
<path d="M0 0 C1.32 0.33 2.64 0.66 4 1 C3.67 1.66 3.34 2.32 3 3 C2.01 3 1.02 3 0 3 C0 2.01 0 1.02 0 0 Z " fill="#E3B43C" transform="translate(372,256)"/>
</svg>
