<?xml version="1.0" encoding="UTF-8"?>
<svg version="1.1" xmlns="http://www.w3.org/2000/svg" width="500" height="500">
<path d="M0 0 C1.5431853 1.3286386 3.06477952 2.68281353 4.5625 4.0625 C5.32949219 4.76117188 6.09648437 5.45984375 6.88671875 6.1796875 C16.0349195 14.908531 22.5193408 25.29850693 28.6875 36.25 C29.6687263 37.97157039 30.64996715 39.69313277 31.63226318 41.41409302 C32.29927153 42.5833005 32.96549096 43.75295839 33.63092041 44.92306519 C36.89591522 50.66299401 40.22541307 56.36429352 43.5625 62.0625 C48.50955076 70.52430185 53.42086669 79.00604885 58.3125 87.5 C64.00684213 97.38742857 69.75056806 107.24375381 75.5625 117.0625 C76.21089844 116.50046875 76.85929687 115.9384375 77.52734375 115.359375 C79.88313843 113.57661146 81.99337238 112.21558633 84.56640625 110.828125 C94.87231453 105.20138143 101.56436255 99.44723479 108.08203125 89.6640625 C112.2859579 83.35611942 116.78469646 80.1642067 123.5625 77.0625 C123.5625 73.4325 123.5625 69.8025 123.5625 66.0625 C122.675625 65.81242187 121.78875 65.56234375 120.875 65.3046875 C111.72548555 61.87361958 106.53447227 54.24467149 102.62109375 45.6640625 C99.20579597 37.27074767 98.98527155 25.90836238 102.3125 17.375 C103.02077771 15.91649085 103.76668021 14.47514897 104.5625 13.0625 C105.160625 11.99 105.75875 10.9175 106.375 9.8125 C109.08483327 6.40585246 112.16066868 3.75720908 115.5625 1.0625 C117.9375 1.5 117.9375 1.5 120.5625 3.0625 C122.26428301 7.6008004 122.6688717 12.6368879 123.16796875 17.4296875 C123.26529297 18.33460937 123.36261719 19.23953125 123.46289062 20.171875 C123.65650896 22.03693321 123.82791249 23.90441399 123.97851562 25.7734375 C124.28040596 28.38357005 124.59957802 30.61633725 125.5625 33.0625 C128.85516687 35.28292463 128.85516687 35.28292463 132.5625 36.0625 C134.2021875 36.5884375 134.2021875 36.5884375 135.875 37.125 C141.42391838 37.03095054 145.09700436 34.16229074 149.5625 31.0625 C149.05501102 23.02280622 148.215309 15.11541568 146.96484375 7.15625 C146.60474519 4.38733684 146.36120886 1.84620923 146.5625 -0.9375 C148.1875 -2.875 148.1875 -2.875 150.5625 -3.9375 C158.11735908 -2.7355906 164.55131859 3.3762762 169.24609375 9.1328125 C175.58494024 18.42477146 176.33119965 28.11402065 175.5625 39.0625 C173.8316483 47.37267353 169.53712185 54.08787815 163.5625 60.0625 C163.33174918 61.40997084 163.15096937 62.76627565 163 64.125 C162.855625 65.424375 162.71125 66.72375 162.5625 68.0625 C163.15417969 68.01609375 163.74585938 67.9696875 164.35546875 67.921875 C168.58235618 67.72880347 170.8873392 67.6405245 174.5625 69.9375 C176.5625 72.0625 176.5625 72.0625 177.5625 74.0625 C177.49869241 76.07243912 177.432229 78.08294071 177.3046875 80.08984375 C177.3714169 82.17592449 177.3714169 82.17592449 179.0546875 83.53125 C180.5625 85.0625 180.5625 85.0625 180.890625 87.25390625 C180.86484375 88.03636719 180.8390625 88.81882812 180.8125 89.625 C180.79703125 90.41003906 180.7815625 91.19507813 180.765625 92.00390625 C180.5625 94.0625 180.5625 94.0625 179.5625 96.0625 C179.8925 96.7225 180.2225 97.3825 180.5625 98.0625 C180.69607453 101.73579964 180.7296568 104.56102959 179.5625 108.0625 C179.8925 108.7225 180.2225 109.3825 180.5625 110.0625 C181.07059831 114.37717092 181.35369522 117.89035894 178.875 121.5625 C176.37351006 123.18508807 174.46902233 123.56120925 171.5625 124.0625 C171.69881836 124.96790527 171.69881836 124.96790527 171.83789062 125.89160156 C176.46468314 157.00974712 176.46468314 157.00974712 170.98828125 164.4453125 C166.57110839 169.45547569 162.39164887 171.83060255 155.75 172.375 C150.46152192 172.19572956 145.8058088 171.07254439 141.796875 167.48046875 C137.15278488 162.30659165 135.44885261 157.43327644 134.4375 150.5625 C134.26992188 149.4590625 134.10234375 148.355625 133.9296875 147.21875 C133.60854763 144.45831369 133.49004102 141.83664373 133.5625 139.0625 C131.2525 139.3925 128.9425 139.7225 126.5625 140.0625 C126.541875 140.92875 126.52125 141.795 126.5 142.6875 C124.54363484 149.73041456 117.33716842 152.94342072 111.375 156.4375 C110.46584839 156.97479736 110.46584839 156.97479736 109.53833008 157.52294922 C106.18203359 159.42137613 104.51977812 160.0625 100.5625 160.0625 C107.86513539 172.74716223 115.17698002 185.42585622 122.5625 198.0625 C127.42354384 206.38001126 132.25372852 214.714661 137.0625 223.0625 C146.92492663 240.1737343 156.86570961 257.23633047 166.94586182 274.22024536 C167.77122132 275.61103881 168.59621538 277.00204919 169.4208374 278.39328003 C173.32800525 284.98454215 177.24102773 291.56932911 181.265625 298.08984375 C194.91142 320.22901524 201.43436298 342.72255554 195.5390625 368.53515625 C191.61008608 382.72661908 185.2492167 394.98379449 175.5625 406.0625 C175.03140625 406.67738281 174.5003125 407.29226563 173.953125 407.92578125 C159.14041322 423.87511201 138.55682557 431.32253461 117.37109375 433.37109375 C114.72370828 433.43816611 112.19868689 433.31192089 109.5625 433.0625 C108.41910156 432.96839844 107.27570313 432.87429688 106.09765625 432.77734375 C86.17351488 430.65950416 69.77790253 423.07262596 55.5625 409.0625 C54.64597656 408.25425781 54.64597656 408.25425781 53.7109375 407.4296875 C43.47863962 398.13184605 37.50273779 384.45028186 30.96789551 372.48526001 C24.07879969 359.87403064 16.82146778 347.51717926 9.43359375 335.19042969 C6.56113512 330.38850642 3.7177683 325.56953914 0.875 320.75 C-0.17826732 318.9660761 -1.2316518 317.18222137 -2.28515625 315.3984375 C-3.06076904 314.08504395 -3.06076904 314.08504395 -3.85205078 312.74511719 C-6.03511818 309.05131605 -8.22260268 305.36013614 -10.40966797 301.66870117 C-12.03857529 298.91543876 -13.66236227 296.15921288 -15.28515625 293.40234375 C-17.35727089 289.88275378 -19.4500305 286.37676582 -21.55859375 282.87890625 C-22.53935039 281.23194224 -23.51983209 279.58481446 -24.5 277.9375 C-24.94102051 277.21667236 -25.38204102 276.49584473 -25.83642578 275.75317383 C-28.23400006 271.6927059 -29.93141876 267.78718139 -31.33984375 263.28125 C-33.44323385 256.62692692 -36.5413395 250.76362388 -39.9375 244.6875 C-40.50597656 243.64722656 -41.07445312 242.60695313 -41.66015625 241.53515625 C-44.39962223 236.55835379 -47.24487195 231.7660177 -50.4375 227.0625 C-54.56310517 234.21325899 -58.63500304 241.39425826 -62.59765625 248.63671875 C-62.94173019 249.25289063 -63.28580414 249.8690625 -63.64030457 250.50390625 C-66.67924416 256.10824877 -68.40914524 261.86147405 -70.0078125 268.01171875 C-72.78307994 276.97285087 -78.73219423 285.07489612 -83.58544922 293.01953125 C-86.44150497 297.7121069 -89.21621745 302.45184061 -92 307.1875 C-93.07350575 309.00302594 -94.14772372 310.81813095 -95.22265625 312.6328125 C-98.4645398 318.10724888 -101.70143327 323.58462366 -104.9375 329.0625 C-108.13894229 334.48146603 -111.3409499 339.9000908 -114.546875 345.31640625 C-115.06290283 346.18869873 -115.57893066 347.06099121 -116.1105957 347.9597168 C-117.16322765 349.73887502 -118.21645195 351.5176829 -119.27026367 353.29614258 C-122.07925105 358.04389851 -124.87074788 362.80108397 -127.63473511 367.57514954 C-129.13409631 370.16435127 -130.63770382 372.75107842 -132.14123535 375.33786011 C-132.86716378 376.58977296 -133.59096268 377.84292363 -134.31237793 379.09744263 C-148.61307025 403.96223544 -165.17419683 422.02607178 -193.5 430.3359375 C-215.92497873 435.88254128 -239.5410059 431.74297976 -259.23339844 419.99072266 C-278.15820039 407.65510011 -291.19763082 388.91954242 -296.3125 366.9375 C-301.90056981 334.68061799 -289.32876353 311.14173098 -273.27978516 284.16650391 C-270.32581657 279.18946221 -267.41336641 274.18838045 -264.5 269.1875 C-263.92556152 268.20322021 -263.35112305 267.21894043 -262.75927734 266.20483398 C-257.82469547 257.74466837 -252.9317897 249.26073203 -248.04321289 240.77392578 C-243.29335468 232.53280809 -238.50654959 224.3138309 -233.70703125 216.1015625 C-228.79748969 207.69466213 -223.93221774 199.26265437 -219.07373047 190.82617188 C-213.99565509 182.01441329 -208.87772211 173.2264486 -203.74023438 164.44921875 C-203.18916016 163.50691406 -202.63808594 162.56460938 -202.0703125 161.59375 C-201.58449707 160.76423828 -201.09868164 159.93472656 -200.59814453 159.08007812 C-199.83991841 157.76203424 -199.11752155 156.4225431 -198.4375 155.0625 C-199.93023437 154.70091797 -199.93023437 154.70091797 -201.453125 154.33203125 C-205.76177252 153.09649512 -209.37194605 151.06303622 -213.1875 148.75 C-213.84621094 148.37166016 -214.50492187 147.99332031 -215.18359375 147.60351562 C-220.21997797 144.58474983 -222.55149057 141.72052828 -224.4375 136.0625 C-226.4175 135.7325 -228.3975 135.4025 -230.4375 135.0625 C-230.49695801 135.65675781 -230.55641602 136.25101563 -230.61767578 136.86328125 C-230.9065445 139.59982027 -231.23421276 142.33042067 -231.5625 145.0625 C-231.6553125 145.99707031 -231.748125 146.93164062 -231.84375 147.89453125 C-232.69715845 154.67438725 -234.66004289 159.12750166 -239.4375 164.0625 C-244.59079883 167.86612533 -249.0924743 168.48550171 -255.4375 168.0625 C-262.40536916 166.69087221 -266.44728679 162.79915435 -270.4375 157.0625 C-274.22711058 145.69366826 -270.3775735 131.54126821 -268.4375 120.0625 C-269.37851562 119.9284375 -270.31953125 119.794375 -271.2890625 119.65625 C-274.4375 119.0625 -274.4375 119.0625 -276.8125 117.5625 C-279.25006506 113.8123999 -278.71265025 110.40375953 -278.4375 106.0625 C-278.4375 104.7425 -278.4375 103.4225 -278.4375 102.0625 C-278.42589844 101.22074219 -278.41429687 100.37898438 -278.40234375 99.51171875 C-278.36035546 95.27090129 -278.38156402 91.37777553 -279.125 87.1875 C-279.51133551 83.3241449 -278.41269676 82.30182269 -276.4375 79.0625 C-276.4375 77.7425 -276.4375 76.4225 -276.4375 75.0625 C-276.4375 70.84749899 -276.07699407 69.26759994 -273.4375 66.0625 C-269.84946627 63.2718071 -265.77710021 63.91784666 -261.4375 64.0625 C-260.96621111 61.2936778 -260.78517667 59.75086282 -261.4375 57.0625 C-263.26356963 54.6277405 -265.2978466 52.50938952 -267.3984375 50.30859375 C-273.46926661 43.62137778 -275.3610231 35.1466626 -275.47265625 26.265625 C-274.84172898 15.37058824 -270.6514263 5.65503367 -262.484375 -1.6953125 C-258.76964832 -4.63023014 -255.20176804 -7.17954827 -250.4375 -7.9375 C-248.2578125 -6.8125 -248.2578125 -6.8125 -246.4375 -4.9375 C-246.1953125 -2.43359375 -246.1953125 -2.43359375 -246.5625 0.625 C-246.75005859 2.33429687 -246.75005859 2.33429687 -246.94140625 4.078125 C-247.0202002 4.70654297 -247.09899414 5.33496094 -247.18017578 5.98242188 C-247.466053 8.29330797 -247.71742317 10.60656319 -247.96484375 12.921875 C-248.43568902 17.30452343 -248.93132 21.68379728 -249.4375 26.0625 C-243.12876702 31.38773047 -243.12876702 31.38773047 -235.36328125 32.859375 C-232.6481735 32.06188007 -230.07136847 31.0902426 -227.4375 30.0625 C-226.4475 30.0625 -225.4575 30.0625 -224.4375 30.0625 C-224.38851562 29.3096875 -224.33953125 28.556875 -224.2890625 27.78125 C-223.83542818 21.33651421 -223.25471796 14.91584111 -222.5 8.5 C-222.42539551 7.82195313 -222.35079102 7.14390625 -222.27392578 6.4453125 C-221.84545322 2.94743428 -221.27986286 0.09199206 -219.4375 -2.9375 C-216.42802301 -3.45131314 -214.30570845 -3.50270953 -211.69140625 -1.80078125 C-204.53395126 4.78280207 -199.94588807 14.15037758 -199.234375 23.82421875 C-199.05807132 34.82850658 -201.31720441 43.49973073 -208.4375 52.0625 C-215.86350897 59.66900224 -215.86350897 59.66900224 -221.4375 61.0625 C-221.9325 67.0025 -221.9325 67.0025 -222.4375 73.0625 C-221.57125 73.31 -220.705 73.5575 -219.8125 73.8125 C-213.12553727 76.28915286 -209.97689074 79.39176113 -206.04736328 85.15625 C-198.13810078 96.67109986 -188.57697561 102.70771106 -176.23486328 108.92773438 C-175.6417334 109.30220703 -175.04860352 109.67667969 -174.4375 110.0625 C-174.4375 110.7225 -174.4375 111.3825 -174.4375 112.0625 C-171.78184213 109.66280318 -170.15751447 107.09805811 -168.390625 103.99609375 C-167.80079834 102.96661621 -167.21097168 101.93713867 -166.60327148 100.87646484 C-165.97106689 99.76223145 -165.3388623 98.64799805 -164.6875 97.5 C-164.01882488 96.3299468 -163.34962649 95.1601925 -162.67993164 93.99072266 C-161.28796746 91.55895633 -159.89826798 89.12591756 -158.51025391 86.69189453 C-155.3173068 81.09627475 -152.09598364 75.51701348 -148.875 69.9375 C-148.25826416 68.86894775 -147.64152832 67.80039551 -147.00610352 66.69946289 C-145.15090847 63.48655934 -143.29443869 60.27439607 -141.4375 57.0625 C-140.51807617 55.47115234 -140.51807617 55.47115234 -139.58007812 53.84765625 C-136.07456294 47.78626808 -132.55183469 41.73560537 -128.99511719 35.70410156 C-128.00546181 34.02572049 -127.01878438 32.34557715 -126.03613281 30.66308594 C-112.90380152 8.26663428 -95.06600296 -6.98221875 -69.875 -14.4375 C-45.77028722 -20.29857742 -19.60541216 -15.18131607 0 0 Z M-260.4375 6.0625 C-266.38371431 13.65558249 -268.79907593 21.89877693 -268.3125 31.5390625 C-267.1140678 38.60481903 -263.3553007 45.85793947 -257.625 50.1875 C-255.4375 52.0625 -255.4375 52.0625 -254.5625 55.75 C-254.28611597 59.62664968 -254.69365641 63.34697476 -255.28125 67.1796875 C-255.60914066 69.15226334 -255.60914066 69.15226334 -254.4375 71.0625 C-254.29374578 74.44072416 -254.36213652 76.83640955 -255.4375 80.0625 C-254.7775 81.0525 -254.1175 82.0425 -253.4375 83.0625 C-252.86730132 89.33468543 -252.86730132 89.33468543 -254.87890625 91.90234375 C-256.85338735 94.63890528 -257.18173828 96.86741905 -257.6875 100.1875 C-257.85765625 101.24195313 -258.0278125 102.29640625 -258.203125 103.3828125 C-258.6704664 106.03277141 -258.6704664 106.03277141 -257.4375 108.0625 C-257.125 110.875 -257.125 110.875 -257.4375 114.0625 C-258.06785156 114.73410156 -258.69820313 115.40570313 -259.34765625 116.09765625 C-262.36819346 120.38286698 -262.60071076 124.55827172 -263.1875 129.6875 C-263.31253906 130.62207031 -263.43757813 131.55664062 -263.56640625 132.51953125 C-265.29353685 144.29042151 -265.29353685 144.29042151 -262.8125 155.5625 C-259.70227639 158.83641959 -257.08901325 160.89059443 -252.44921875 161.19140625 C-248.49248807 160.94550773 -246.72157285 160.29099338 -243.5625 157.75 C-240.36509433 153.70622224 -239.19753433 150.64512871 -238.56787109 145.53125 C-238.42787689 144.42330078 -238.28788269 143.31535156 -238.14364624 142.17382812 C-238.00085236 140.98208984 -237.85805847 139.79035156 -237.7109375 138.5625 C-237.55839508 137.33466797 -237.40585266 136.10683594 -237.24868774 134.84179688 C-236.84547525 131.58233402 -236.44893583 128.3221461 -236.05523682 125.06152344 C-235.65294512 121.74850923 -235.23965063 118.43687958 -234.828125 115.125 C-234.51761572 112.60424216 -234.20769987 110.08341113 -233.8984375 107.5625 C-233.75159515 106.37076172 -233.60475281 105.17902344 -233.45346069 103.95117188 C-233.31977081 102.84322266 -233.18608093 101.73527344 -233.04833984 100.59375 C-232.93001801 99.61986328 -232.81169617 98.64597656 -232.68978882 97.64257812 C-232.3726205 94.83106179 -232.3726205 94.83106179 -232.4375 91.0625 C-234.3246875 90.69125 -234.3246875 90.69125 -236.25 90.3125 C-238.93913627 89.62236768 -240.28685802 89.18960417 -242.4375 87.375 C-243.87945886 84.04047014 -243.87918515 81.65907908 -243.4375 78.0625 C-242 75.25 -242 75.25 -239.4375 73.0625 C-237.08483559 72.30981191 -234.80014954 71.82070778 -232.36328125 71.421875 C-230.4366711 71.25013488 -230.4366711 71.25013488 -229.4375 70.0625 C-229.38851562 69.25683594 -229.33953125 68.45117188 -229.2890625 67.62109375 C-228.93417179 62.73216829 -228.66620973 59.27093399 -225.0703125 55.734375 C-223.13644595 54.40320399 -221.17852554 53.10636662 -219.19921875 51.84375 C-211.80510475 47.07470335 -208.51159487 40.4870539 -206.4375 32.0625 C-205.31556017 24.609614 -206.98802435 17.72722765 -210.4375 11.0625 C-212.47086922 8.78794199 -212.47086922 8.78794199 -214.4375 7.0625 C-216.32034826 16.33652919 -217.4019231 25.66519048 -218.4375 35.0625 C-220.88029362 35.79976166 -223.32390495 36.53389485 -225.76953125 37.26171875 C-227.91462371 37.90556056 -230.05236373 38.57387351 -232.1875 39.25 C-237.11863458 40.48278365 -240.60689856 40.789348 -245.05078125 38.1640625 C-246.29310685 37.35253273 -247.52611786 36.52658639 -248.75 35.6875 C-249.69842773 35.06875 -249.69842773 35.06875 -250.66601562 34.4375 C-255.28456686 31.36836627 -255.28456686 31.36836627 -256.4375 29.0625 C-256.37285361 26.95561528 -256.23542222 24.85077135 -256.0625 22.75 C-255.96324219 21.50347656 -255.86398438 20.25695312 -255.76171875 18.97265625 C-255.65472656 17.68230469 -255.54773438 16.39195313 -255.4375 15.0625 C-255.24879164 12.60425913 -255.06120395 10.14593184 -254.875 7.6875 C-254.72956206 5.81246929 -254.58388369 3.93745711 -254.4375 2.0625 C-256.92390641 2.0625 -258.79106106 4.52582366 -260.4375 6.0625 Z M154.5625 6.0625 C154.706875 7.23425781 154.85125 8.40601563 155 9.61328125 C155.49169202 13.67536716 155.9030128 17.74263781 156.3046875 21.81445312 C156.51910085 23.6840726 156.84016792 25.54108168 157.1875 27.390625 C157.60961749 30.46856502 157.72465978 32.16647281 156.5625 35.0625 C151.52304992 39.78352329 145.65808776 44.21437147 138.5234375 44.42578125 C134.62441411 44.06817851 131.38776949 43.31623837 127.6875 42.0625 C123.70266107 40.59987411 123.70266107 40.59987411 119.5625 40.0625 C118.2425 31.1525 116.9225 22.2425 115.5625 13.0625 C114.5725 13.0625 113.5825 13.0625 112.5625 13.0625 C107.61088975 21.56865903 106.13621875 29.28375159 107.5625 39.0625 C110.14064205 47.17192864 114.47609946 53.32911277 121.5625 58.0625 C122.82963241 58.61276866 124.10028793 59.15502534 125.375 59.6875 C130.47903108 63.49050355 130.64326721 69.00431815 131.5625 75.0625 C132.32175781 75.20945312 133.08101563 75.35640625 133.86328125 75.5078125 C141.96900759 77.33712039 141.96900759 77.33712039 144.8125 80.8125 C145.82732484 85.2100743 145.87817932 88.94279443 143.4375 92.875 C140.68499616 94.61825243 137.68733488 95.20732001 134.5625 96.0625 C135.84238875 108.27987485 137.35573062 120.44972453 139.11206055 132.60791016 C139.37367119 134.43177593 139.63040109 136.25634759 139.88256836 138.08154297 C140.2539479 140.76946481 140.63902617 143.45510422 141.02734375 146.140625 C141.13682846 146.95001526 141.24631317 147.75940552 141.3591156 148.59332275 C142.16732058 154.02421342 143.39659721 158.73615997 147.25 162.875 C150.59693138 164.59369449 153.84009873 165.17029154 157.5625 165.0625 C161.41812442 163.8020074 163.22000127 162.44105123 165.9375 159.4375 C169.30208318 152.44951955 167.39244779 144.03829286 166.375 136.5625 C166.27380859 135.67691406 166.17261719 134.79132813 166.06835938 133.87890625 C165.28807428 128.13432084 163.76691569 123.99722148 160.56201172 119.15039062 C158.9868965 115.86011575 159.71233252 113.05554622 160.28515625 109.55859375 C160.72748155 105.57766607 160.05079267 101.77563835 158.5625 98.0625 C158.046875 97.57523437 157.53125 97.08796875 157 96.5859375 C155.5625 95.0625 155.5625 95.0625 155.234375 92.94140625 C155.26015625 92.17699219 155.2859375 91.41257812 155.3125 90.625 C155.32796875 89.86316406 155.3434375 89.10132813 155.359375 88.31640625 C155.5625 86.0625 155.5625 86.0625 156.0703125 84.16015625 C157.78040989 76.87188405 156.69874181 68.51573771 155.5859375 61.18359375 C155.55719218 58.58214256 156.19035383 57.25336006 157.5625 55.0625 C159.22916667 53.39583333 160.89583333 51.72916667 162.5625 50.0625 C168.47312057 42.12538094 169.46481564 34.75953774 168.5625 25.0625 C166.87037737 17.83804831 163.10434187 11.98715299 157.5625 7.0625 C156.5725 6.7325 155.5825 6.4025 154.5625 6.0625 Z M-88.4375 27.0625 C-99.87998024 41.0025627 -99.87998024 41.0025627 -106.4375 57.0625 C-99.11578625 58.69665616 -91.78706092 60.29595141 -84.45263672 61.87207031 C-81.96231422 62.41140873 -79.47365459 62.95848911 -76.98681641 63.51367188 C-73.39642938 64.31377415 -69.80083512 65.08515143 -66.203125 65.8515625 C-65.10575012 66.10249664 -64.00837524 66.35343079 -62.87774658 66.61196899 C-55.18575791 68.21088029 -49.05976899 67.82587035 -41.4375 66.0625 C-40.54087646 65.87482056 -39.64425293 65.68714111 -38.72045898 65.49377441 C-36.04370466 64.92824385 -33.37740242 64.32694902 -30.7109375 63.71484375 C-29.75603424 63.49808487 -28.80113098 63.28132599 -27.81729126 63.05799866 C-25.82556704 62.60503527 -23.83422504 62.15038802 -21.84326172 61.6940918 C-18.78586709 60.99390065 -15.72702575 60.30031024 -12.66796875 59.60742188 C-10.72387024 59.16444893 -8.7798566 58.72110335 -6.8359375 58.27734375 C-5.92145844 58.07004135 -5.00697937 57.86273895 -4.06478882 57.64915466 C-3.22275909 57.45547806 -2.38072937 57.26180145 -1.51318359 57.06225586 C-0.772164 56.89285995 -0.03114441 56.72346405 0.73233032 56.54893494 C2.64037556 56.10791956 2.64037556 56.10791956 4.5625 55.0625 C-1.85647775 37.97623554 -14.07086897 21.47525427 -30.4375 13.0625 C-31.10007812 12.71960938 -31.76265625 12.37671875 -32.4453125 12.0234375 C-51.64277613 3.96803119 -75.5260812 12.23827842 -88.4375 27.0625 Z M4.5625 55.0625 C3.5557996 57.33057204 2.55698234 59.60157754 1.5625 61.875 C1.27632813 62.51759766 0.99015625 63.16019531 0.6953125 63.82226562 C-0.57461041 66.74006469 -1.4375 68.84515714 -1.4375 72.0625 C-2.57268066 72.18415527 -3.70786133 72.30581055 -4.87744141 72.43115234 C-9.47965421 73.00837047 -13.90298935 74.04172325 -18.3984375 75.1640625 C-20.10399783 75.57622011 -21.80973264 75.98765627 -23.515625 76.3984375 C-26.16565572 77.04083947 -28.81418846 77.68792103 -31.45996094 78.34765625 C-34.04028598 78.98865927 -36.62491245 79.60901595 -39.2109375 80.2265625 C-39.9873056 80.42545074 -40.76367371 80.62433899 -41.56356812 80.82925415 C-50.73185361 82.9812482 -59.10276368 81.12737581 -68.05859375 78.77734375 C-68.92517105 78.55679825 -69.79174835 78.33625275 -70.68458557 78.10902405 C-73.41652181 77.41282467 -76.14586816 76.70710533 -78.875 76 C-81.62943399 75.29064485 -84.3843701 74.58340931 -87.14039612 73.88026428 C-88.84642764 73.4445927 -90.55150167 73.00515021 -92.25547791 72.56150818 C-95.38816369 71.75836544 -98.1892326 71.0625 -101.4375 71.0625 C-101.705625 70.19625 -101.97375 69.33 -102.25 68.4375 C-103.40861987 65.14458036 -104.81959839 62.15122125 -106.4375 59.0625 C-107.0975 59.0625 -107.7575 59.0625 -108.4375 59.0625 C-109.66722604 60.64384658 -109.66722604 60.64384658 -110.8203125 62.7109375 C-111.26503906 63.46890625 -111.70976562 64.226875 -112.16796875 65.0078125 C-112.62816406 65.80960938 -113.08835938 66.61140625 -113.5625 67.4375 C-114.03042969 68.2315625 -114.49835938 69.025625 -114.98046875 69.84375 C-117.50110369 73.71284366 -117.50110369 73.71284366 -118.4375 78.0625 C-117.68726563 78.28164062 -116.93703125 78.50078125 -116.1640625 78.7265625 C-91.12728435 86.48354918 -83.13757423 106.05319456 -71.49047852 127.72949219 C-66.96705356 136.13690855 -62.30104649 144.45749318 -57.57495117 152.75244141 C-56.80501831 154.10474854 -56.80501831 154.10474854 -56.01953125 155.484375 C-55.56811768 156.27424805 -55.1167041 157.06412109 -54.65161133 157.87792969 C-53.52006348 159.91394219 -52.46114342 161.97051258 -51.4375 164.0625 C-47.59291815 162.78097272 -47.37830277 161.61929476 -45.5390625 158.0859375 C-44.70616699 156.508125 -44.70616699 156.508125 -43.85644531 154.8984375 C-43.26444336 153.75632812 -42.67244141 152.61421875 -42.0625 151.4375 C-40.80419862 149.04697557 -39.53869934 146.66028353 -38.2734375 144.2734375 C-37.95318604 143.66723572 -37.63293457 143.06103394 -37.30297852 142.4364624 C-33.6930259 135.61920573 -29.88866392 128.91503277 -26.06201172 122.2175293 C-23.55933738 117.83228856 -21.08660628 113.44022158 -18.71875 108.98046875 C-9.77473181 92.17640109 -0.93206802 82.89993573 17.5625 77.0625 C15.82403247 72.10538402 13.16598281 67.74861031 10.5 63.25 C10.04044922 62.46173828 9.58089844 61.67347656 9.10742188 60.86132812 C8.66849609 60.11689453 8.22957031 59.37246094 7.77734375 58.60546875 C7.37636475 57.92508545 6.97538574 57.24470215 6.56225586 56.54370117 C6.23233643 56.05490479 5.90241699 55.5661084 5.5625 55.0625 C5.2325 55.0625 4.9025 55.0625 4.5625 55.0625 Z M-267.4375 71.0625 C-268.4275 72.5475 -268.4275 72.5475 -269.4375 74.0625 C-267.53994856 76.41223818 -267.53994856 76.41223818 -264.3125 76.1875 C-263.36375 76.14625 -262.415 76.105 -261.4375 76.0625 C-261.4375 74.7425 -261.4375 73.4225 -261.4375 72.0625 C-262.49179686 70.79777935 -262.49179686 70.79777935 -264.875 70.8125 C-265.720625 70.895 -266.56625 70.9775 -267.4375 71.0625 Z M163.5625 75.0625 C162.97179986 77.00853274 162.97179986 77.00853274 162.5625 79.0625 C163.68784105 80.41868499 163.68784105 80.41868499 166.625 80.125 C167.594375 80.104375 168.56375 80.08375 169.5625 80.0625 C170.15320014 78.11646726 170.15320014 78.11646726 170.5625 76.0625 C169.43715895 74.70631501 169.43715895 74.70631501 166.5 75 C165.530625 75.020625 164.56125 75.04125 163.5625 75.0625 Z M-236.4375 79.0625 C-237.02820014 81.00853274 -237.02820014 81.00853274 -237.4375 83.0625 C-235.76561639 84.73438361 -233.47718578 84.50639228 -231.1875 84.8125 C-226.0403874 85.72901811 -223.68491591 86.79446766 -220.4375 91.0625 C-219.90125 91.69929688 -219.365 92.33609375 -218.8125 92.9921875 C-215.6569794 96.86354379 -214.05276398 98.90882685 -214.4375 104.0625 C-216.625 104 -216.625 104 -219.4375 103.0625 C-220.91812722 101.31266783 -222.12016504 99.50782728 -223.32421875 97.55859375 C-223.87529297 96.81802734 -223.87529297 96.81802734 -224.4375 96.0625 C-225.0975 96.0625 -225.7575 96.0625 -226.4375 96.0625 C-226.94443672 100.08249019 -227.4418039 104.10360954 -227.9375 108.125 C-228.08058594 109.25873047 -228.22367188 110.39246094 -228.37109375 111.56054688 C-229.04941318 117.10015554 -229.63193782 122.48051428 -229.4375 128.0625 C-220.83227381 128.76141274 -220.83227381 128.76141274 -213.4375 125.0625 C-207.95118361 119.57618361 -202.46955345 111.63545954 -202.4140625 103.71875 C-203.77568519 98.85432695 -206.12576857 95.47075167 -209.1875 91.5 C-209.76516113 90.75000732 -210.34282227 90.00001465 -210.93798828 89.22729492 C-217.15886604 81.57452095 -226.31891067 73.88554732 -236.4375 79.0625 Z M115.375 91.1875 C114.41286082 92.4609195 113.47873329 93.75566199 112.5625 95.0625 C111.84578125 96.00867188 111.1290625 96.95484375 110.390625 97.9296875 C105.92142497 103.62672582 105.92142497 103.62672582 104.60546875 110.48828125 C105.66406147 114.441801 107.24008923 117.75661641 109.3125 121.25 C109.64765625 121.85263672 109.9828125 122.45527344 110.328125 123.07617188 C113.17318537 127.98497868 116.12965704 131.25155235 121.5625 133.0625 C123.51927555 133.22004704 123.51927555 133.22004704 125.5625 133.1875 C126.5834375 133.19136719 126.5834375 133.19136719 127.625 133.1953125 C129.78124781 133.12881126 129.78124781 133.12881126 132.5625 132.0625 C131.2425 122.1625 129.9225 112.2625 128.5625 102.0625 C127.5725 102.0625 126.5825 102.0625 125.5625 102.0625 C124.28071156 103.61267142 124.28071156 103.61267142 123.1875 105.5625 C121.90234375 107.50390625 121.90234375 107.50390625 120.5625 109.0625 C117.75 109.5 117.75 109.5 115.5625 109.0625 C116.79258538 101.98950905 120.75816485 97.26640362 125.5625 92.0625 C129.13604423 89.68013718 131.33116028 89.75230209 135.50390625 89.6015625 C137.76215522 89.26147739 137.76215522 89.26147739 138.83984375 87.0234375 C139.07832031 86.37632812 139.31679688 85.72921875 139.5625 85.0625 C137.23695405 82.9158422 135.95192329 82.0977542 132.7578125 81.80859375 C126.18818427 82.33063022 119.75357499 86.30508898 115.375 91.1875 Z M-271.4375 84.0625 C-271.4375 85.3825 -271.4375 86.7025 -271.4375 88.0625 C-267.8075 88.3925 -264.1775 88.7225 -260.4375 89.0625 C-260.1075 87.7425 -259.7775 86.4225 -259.4375 85.0625 C-261.00117978 83.49882022 -262.71588393 83.679321 -264.875 83.4375 C-265.67808594 83.34210938 -266.48117187 83.24671875 -267.30859375 83.1484375 C-269.49225766 82.88865983 -269.49225766 82.88865983 -271.4375 84.0625 Z M161.5625 89.0625 C161.8925 90.3825 162.2225 91.7025 162.5625 93.0625 C165.8625 92.7325 169.1625 92.4025 172.5625 92.0625 C172.8925 90.7425 173.2225 89.4225 173.5625 88.0625 C172.53859653 86.82388461 172.53859653 86.82388461 170.375 86.875 C167.17214058 87.08852396 164.56051865 87.94695818 161.5625 89.0625 Z M-271.4375 96.0625 C-271.1075 97.3825 -270.7775 98.7025 -270.4375 100.0625 C-268.4575 100.0625 -266.4775 100.0625 -264.4375 100.0625 C-264.4375 98.7425 -264.4375 97.4225 -264.4375 96.0625 C-268.02077753 95.06032936 -268.02077753 95.06032936 -271.4375 96.0625 Z M165.5625 100.0625 C165.8925 101.3825 166.2225 102.7025 166.5625 104.0625 C168.5425 104.0625 170.5225 104.0625 172.5625 104.0625 C173.15320014 102.11646726 173.15320014 102.11646726 173.5625 100.0625 C172.51025333 98.78693182 172.51025333 98.78693182 170.125 98.9375 C167.57271378 98.88943324 167.57271378 98.88943324 165.5625 100.0625 Z M14.5625 110.0625 C9.27010631 116.98027664 5.27563401 124.80999281 1.125 132.4375 C0.06733459 134.3699398 -0.99178671 136.30157749 -2.05088806 138.23323059 C-2.77392033 139.55228903 -3.49646242 140.87161626 -4.21852112 142.19120789 C-7.24239272 147.71618093 -10.29431424 153.22505058 -13.36108398 158.72631836 C-14.61324138 160.97929537 -15.85764985 163.23659777 -17.09399414 165.49829102 C-19.93498229 170.68049582 -22.83525481 175.75320124 -26.06640625 180.703125 C-31.76187213 189.01277123 -31.76187213 189.01277123 -33.0078125 198.59375 C-31.51687548 201.7091408 -29.88494973 204.28215036 -27.84716797 207.04882812 C-25.05876842 211.03198009 -22.84782453 215.37323086 -20.5 219.625 C-19.36573115 221.62248691 -18.22892311 223.61853365 -17.08984375 225.61328125 C-13.18730337 232.48009843 -9.36987791 239.39270158 -5.5625 246.3125 C-4.20197797 248.78393955 -2.84125778 251.25526995 -1.48046875 253.7265625 C-1.14347961 254.33865067 -0.80649048 254.95073883 -0.45928955 255.58137512 C3.05328146 261.95870692 6.58721553 268.32412462 10.125 274.6875 C10.73972168 275.79319336 11.35444336 276.89888672 11.98779297 278.03808594 C13.22628823 280.26536149 14.46489475 282.49257518 15.70361328 284.71972656 C18.1988627 289.20684962 20.69222005 293.69502241 23.18530273 298.18334961 C24.43578493 300.43434766 25.68659823 302.6851618 26.93774414 304.93579102 C30.06920606 310.56948634 33.195731 316.20581737 36.3125 321.84765625 C42.64555727 333.30119792 49.03655141 344.71787832 55.5625 356.0625 C56.16126953 357.10607666 56.76003906 358.14965332 57.37695312 359.22485352 C68.74928666 378.90566146 79.26526774 393.54992581 101.25 401.375 C118.47723726 405.0539172 134.16897187 400.08184173 148.62109375 390.73046875 C158.24308862 383.37508699 164.9680472 370.68607626 167.5625 359.0625 C169.52226033 337.00776275 161.52035425 322.5762232 150.5625 304.0625 C149.31504807 301.94143924 148.06765277 299.82034518 146.8203125 297.69921875 C143.83194083 292.63148436 140.82673666 287.57394014 137.81358337 282.5209198 C135.17320944 278.09187496 132.54360809 273.65654336 129.91796875 269.21875 C119.58459287 251.76017473 109.12409401 234.3838112 98.5625 217.0625 C95.76864393 212.48049748 92.97626307 207.89760446 90.1875 203.3125 C89.66612457 202.45537415 89.66612457 202.45537415 89.13421631 201.58093262 C82.97122121 191.44230548 76.90772706 181.24620216 70.86309814 171.03668213 C63.78855157 159.09060386 56.62525444 147.20132715 49.390625 135.3515625 C46.9798094 131.40256515 44.5922226 127.44177497 42.234375 123.4609375 C41.73421875 122.62288574 41.2340625 121.78483398 40.71875 120.92138672 C39.82044633 119.41454469 38.9290946 117.90352196 38.046875 116.38720703 C35.30076695 111.80622004 32.4509254 108.5067127 27.5625 106.0625 C21.83024548 105.51132168 18.91300607 106.26737768 14.5625 110.0625 Z M-195.4375 107.0625 C-195.95699219 108.13628906 -196.47648437 109.21007812 -197.01171875 110.31640625 C-197.7158165 111.75276565 -198.42026225 113.1889545 -199.125 114.625 C-199.63450195 115.68170898 -199.63450195 115.68170898 -200.15429688 116.75976562 C-206.57387943 129.77891904 -206.57387943 129.77891904 -212.1875 132.3125 C-215.70700539 133.72874167 -215.70700539 133.72874167 -216.4375 137.0625 C-213.27017904 139.8075115 -209.90931808 142.13538042 -206.375 144.375 C-205.53839844 144.90738281 -204.70179688 145.43976563 -203.83984375 145.98828125 C-201.58567324 147.20441302 -201.58567324 147.20441302 -199.53051758 147.00976562 C-196.25525818 145.52743663 -195.30032476 143.06510451 -193.546875 139.98046875 C-193.19739807 139.36988113 -192.84792114 138.75929352 -192.487854 138.13020325 C-191.75228879 136.83828674 -191.02307794 135.54273452 -190.29980469 134.24389648 C-189.19256904 132.25908667 -188.06300332 130.28836948 -186.9296875 128.31835938 C-182.82301698 121.61610238 -182.82301698 121.61610238 -181.4375 114.0625 C-184.03026372 112.01783589 -184.03026372 112.01783589 -187.3125 110.3125 C-188.40304688 109.69890625 -189.49359375 109.0853125 -190.6171875 108.453125 C-193.21237944 106.91508742 -193.21237944 106.91508742 -195.4375 107.0625 Z M-133.4375 111.0625 C-138.59606262 117.85594218 -142.7159857 125.47195361 -147.03717041 132.81481934 C-149.13693439 136.38159672 -151.24607278 139.94281924 -153.35546875 143.50390625 C-153.78339722 144.22649628 -154.21132568 144.9490863 -154.65222168 145.693573 C-158.74369773 152.59417863 -162.89174333 159.45959177 -167.0625 166.3125 C-167.40924774 166.8825174 -167.75599548 167.45253479 -168.11325073 168.03982544 C-170.89904744 172.61863196 -173.68899579 177.19490392 -176.47924805 181.77099609 C-178.92567118 185.78361141 -181.37035355 189.79728024 -183.8125 193.8125 C-184.16008362 194.38391724 -184.50766724 194.95533447 -184.86578369 195.54406738 C-191.03158408 205.68730945 -197.09865381 215.88760653 -203.1449585 226.10241699 C-208.68417395 235.4586203 -214.27743274 244.77893483 -219.9375 254.0625 C-226.86334864 265.42605814 -233.6866687 276.84766629 -240.45922852 288.30322266 C-244.21583115 294.65453828 -247.98939831 300.99325185 -251.83203125 307.29296875 C-252.5163623 308.41872314 -253.20069336 309.54447754 -253.90576172 310.7043457 C-255.1705856 312.78097137 -256.441258 314.85405237 -257.71923828 316.92260742 C-266.57522371 331.48794147 -269.94716278 345.72543492 -266.75390625 362.6953125 C-262.2771998 376.92418031 -253.28772534 388.53593944 -240.4375 396.0625 C-226.44982513 403.13113784 -212.34838729 405.02641471 -197.1875 400.375 C-177.19234719 392.9664374 -168.27613961 378.49233516 -158.4375 360.5625 C-157.78618175 359.38195479 -157.13447998 358.2016211 -156.48242188 357.02148438 C-155.13394562 354.58023489 -153.78708934 352.13810268 -152.44140625 349.6953125 C-149.28883079 343.97583597 -146.11167497 338.27000704 -142.9375 332.5625 C-141.68738932 330.31256149 -140.43738957 328.06256135 -139.1875 325.8125 C-126.6875 303.3125 -114.1875 280.8125 -101.6875 258.3125 C-101.06818604 257.19770264 -100.44887207 256.08290527 -99.81079102 254.93432617 C-98.56659829 252.69484412 -97.32229573 250.45542308 -96.07788086 248.21606445 C-93.19840757 243.03406908 -90.31984156 237.85157884 -87.44558716 232.66668701 C-86.44848432 230.86823531 -85.4508374 229.07008625 -84.453125 227.27197266 C-83.16840312 224.9564243 -81.88629959 222.63948697 -80.60546875 220.32177734 C-78.02161787 215.65656805 -75.4320961 211.00417156 -72.68359375 206.43359375 C-72.29486084 205.78237549 -71.90612793 205.13115723 -71.50561523 204.46020508 C-70.53757361 202.85358787 -69.5510695 201.25813081 -68.5625 199.6640625 C-67.17894053 196.46458124 -67.50226962 195.38163922 -68.4375 192.0625 C-69.39446256 190.06827763 -70.42685324 188.10951321 -71.5078125 186.1796875 C-72.14936279 185.0261377 -72.79091309 183.87258789 -73.4519043 182.68408203 C-74.15531593 181.43515361 -74.85885104 180.18629473 -75.5625 178.9375 C-76.28815792 177.63821623 -77.01316471 176.3385686 -77.73754883 175.03857422 C-79.23171582 172.35913557 -80.72944638 169.68173728 -82.22998047 167.00585938 C-84.92679403 162.19368168 -87.5967285 157.3668089 -90.26733398 152.54003906 C-92.11213988 149.21070872 -93.96524057 145.88611925 -95.8203125 142.5625 C-98.25471819 138.1997094 -100.66279053 133.82372715 -103.0546875 129.4375 C-104.20287536 127.35402907 -105.35130199 125.27068971 -106.5 123.1875 C-107.26799927 121.76074951 -107.26799927 121.76074951 -108.05151367 120.30517578 C-111.29073402 114.47063473 -114.31702472 110.12273764 -120.4375 107.0625 C-126.16975452 106.51132168 -129.08699393 107.26737768 -133.4375 111.0625 Z M-270.4375 108.0625 C-271.02820014 110.00853274 -271.02820014 110.00853274 -271.4375 112.0625 C-270.31215895 113.41868499 -270.31215895 113.41868499 -267.375 113.125 C-266.405625 113.104375 -265.43625 113.08375 -264.4375 113.0625 C-264.4375 111.7425 -264.4375 110.4225 -264.4375 109.0625 C-265.50395115 107.76616379 -265.50395115 107.76616379 -268 108 C-268.804375 108.020625 -269.60875 108.04125 -270.4375 108.0625 Z M167.5625 112.0625 C166.5725 113.5475 166.5725 113.5475 165.5625 115.0625 C167.40133881 117.34978734 167.40133881 117.34978734 170.1875 117.1875 C170.97125 117.14625 171.755 117.105 172.5625 117.0625 C172.8925 115.4125 173.2225 113.7625 173.5625 112.0625 C170.64615871 111.8122843 170.64615871 111.8122843 167.5625 112.0625 Z M96.5625 112.0625 C91.9425 114.7025 87.3225 117.3425 82.5625 120.0625 C86.07619341 127.34039404 89.96220694 134.21562774 94.25 141.0625 C94.83072266 142.00222656 95.41144531 142.94195312 96.00976562 143.91015625 C98.9383054 148.75627131 98.9383054 148.75627131 102.5625 153.0625 C105.21332912 151.44554324 107.85724348 149.8176115 110.5 148.1875 C111.25474609 147.72730469 112.00949219 147.26710937 112.78710938 146.79296875 C113.86508789 146.12587891 113.86508789 146.12587891 114.96484375 145.4453125 C115.62991943 145.03684082 116.29499512 144.62836914 116.98022461 144.20751953 C118.7188403 143.13517006 118.7188403 143.13517006 119.5625 141.0625 C117.50813379 138.86319384 115.50114851 137.4205741 112.9375 135.875 C106.86897032 131.46662261 103.92253047 124.42720053 100.60229492 117.89013672 C99.36068858 115.61854794 99.36068858 115.61854794 96.5625 112.0625 Z " fill="#E1B33C" transform="translate(299.4375,41.9375)"/>
<path d="M0 0 C15.19200359 11.30626009 23.3327732 33.04897634 31.99194336 49.26074219 C32.96488058 51.0300958 34.01041069 52.76041928 35.10375977 54.45800781 C35.72915649 55.59834473 35.72915649 55.59834473 36.3671875 56.76171875 C36.0371875 57.42171875 35.7071875 58.08171875 35.3671875 58.76171875 C34.83351562 58.01148438 34.29984375 57.26125 33.75 56.48828125 C21.84732034 40.13754137 5.97194266 24.80908137 -14.6328125 20.76171875 C-21.83145762 19.84812923 -26.35875173 20.44506022 -32.33935547 24.68261719 C-36.81060391 28.73596525 -39.54934815 33.94305699 -42.5078125 39.13671875 C-43.23216688 40.37249118 -43.95853566 41.60708476 -44.68676758 42.84057617 C-46.22525613 45.45306262 -47.75235632 48.07172822 -49.27099609 50.69580078 C-51.64078435 54.78542394 -54.04779142 58.8522345 -56.46484375 62.9140625 C-56.86559113 63.58759766 -57.2663385 64.26113281 -57.67922974 64.95507812 C-58.48832001 66.31465723 -59.29751383 67.67417472 -60.10681152 69.03363037 C-61.32369329 71.0799038 -62.53780326 73.12779557 -63.75097656 75.17626953 C-70.03198238 85.78022899 -76.41311859 96.32024545 -82.84326172 106.83447266 C-86.175607 112.28533485 -89.50083088 117.74051565 -92.8203125 123.19921875 C-93.1732135 123.77949829 -93.5261145 124.35977783 -93.88970947 124.9576416 C-100.11185799 135.19595873 -106.23689275 145.49032737 -112.33944702 155.80026245 C-117.87894158 165.15692776 -123.47278574 174.47750024 -129.1328125 183.76171875 C-135.38146 194.01738622 -141.56211475 204.31157583 -147.6953125 214.63671875 C-148.283125 215.62502686 -148.283125 215.62502686 -148.8828125 216.63330078 C-152.9870088 223.53660055 -157.06077007 230.45693678 -161.06640625 237.41796875 C-161.70505615 238.52720703 -162.34370605 239.63644531 -163.00170898 240.77929688 C-169.03411674 251.8093662 -169.2816543 265.15420563 -166.94140625 277.37109375 C-162.63082268 291.29481976 -154.13052326 302.37590661 -141.6328125 309.76171875 C-127.65164222 316.83630291 -113.53778987 318.72382028 -98.3828125 314.07421875 C-79.87872635 307.23361243 -71.55058654 294.87739229 -62.2109375 278.29296875 C-60.6328125 275.76171875 -60.6328125 275.76171875 -59.24755859 274.45678711 C-57.11773356 272.22101825 -55.76045705 269.78508761 -54.21875 267.109375 C-53.89196259 266.54617554 -53.56517517 265.98297607 -53.22848511 265.40270996 C-52.52155859 264.18388973 -51.81660135 262.96392562 -51.11340332 261.74295044 C-49.21667708 258.45121839 -47.30379847 255.168911 -45.390625 251.88671875 C-44.99685669 251.21073135 -44.60308838 250.53474396 -44.1973877 249.83827209 C-40.17545786 242.94952209 -36.03939353 236.13228515 -31.8828125 229.32421875 C-25.31854897 218.56150448 -18.86262904 207.74020468 -12.46875 196.87548828 C-8.74453227 190.55917539 -5.00098549 184.25431106 -1.2578125 177.94921875 C-0.65412338 176.93220886 -0.65412338 176.93220886 -0.03823853 175.89465332 C7.72142303 162.82496987 15.5300363 149.78508919 23.3671875 136.76171875 C25.98991814 139.24601007 27.19587144 141.3053204 28.4921875 144.69921875 C28.99105469 145.98119141 28.99105469 145.98119141 29.5 147.2890625 C33.53345724 158.78986625 32.9641753 173.86270843 28.29296875 185.0078125 C24.39290851 192.89701514 19.71266376 200.38493005 15.12109375 207.8828125 C12.32036708 212.47999636 9.59663346 217.12199226 6.8671875 221.76171875 C5.78424934 223.59528553 4.70091529 225.42861856 3.6171875 227.26171875 C3.0809375 228.16921875 2.5446875 229.07671875 1.9921875 230.01171875 C-2.8828125 238.26171875 -2.8828125 238.26171875 -4.50683594 241.01000977 C-5.59349024 242.84900086 -6.68007846 244.688031 -7.76660156 246.52709961 C-10.42359188 251.0241869 -13.08161033 255.52065871 -15.7421875 260.015625 C-16.25821533 260.88791748 -16.77424316 261.76020996 -17.3059082 262.65893555 C-18.35854015 264.43809377 -19.41176445 266.21690165 -20.46557617 267.99536133 C-23.27456355 272.74311726 -26.06606038 277.50030272 -28.83004761 282.27436829 C-30.32940881 284.86357002 -31.83301632 287.45029717 -33.33654785 290.03707886 C-34.06247628 291.28899171 -34.78627518 292.54214238 -35.50769043 293.79666138 C-49.80838275 318.66145419 -66.36950933 336.72529053 -94.6953125 345.03515625 C-117.12029123 350.58176003 -140.7363184 346.44219851 -160.42871094 334.68994141 C-179.35351289 322.35431886 -192.39294332 303.61876117 -197.5078125 281.63671875 C-202.84092916 250.85154234 -191.93686075 224.8488947 -174.6328125 199.76171875 C-174.16286865 199.3128833 -173.6929248 198.86404785 -173.20874023 198.40161133 C-170.93795915 196.03866221 -169.41801859 193.2693718 -167.78125 190.453125 C-167.22434479 189.50823967 -167.22434479 189.50823967 -166.65618896 188.54426575 C-165.8549937 187.1841021 -165.05578751 185.82276524 -164.25836182 184.46038818 C-162.12698202 180.81959745 -159.98080186 177.18754496 -157.8359375 173.5546875 C-157.39955963 172.81478577 -156.96318176 172.07488403 -156.51358032 171.31256104 C-152.32306723 164.21629002 -148.04975547 157.17194383 -143.7578125 150.13671875 C-137.23407159 139.43129789 -130.81865144 128.66648438 -124.45996094 117.86230469 C-120.77803665 111.61425039 -117.08238059 105.37433906 -113.3828125 99.13671875 C-112.77448578 98.11100769 -112.77448578 98.11100769 -112.15386963 97.0645752 C-105.86113738 86.46015026 -99.48971507 75.90652336 -93.06982422 65.37866211 C-86.66727538 54.8676027 -80.38956306 44.28347591 -74.13867188 33.68164062 C-53.18691807 -1.80653638 -53.18691807 -1.80653638 -34.3984375 -6.76953125 C-21.81147725 -8.90291434 -10.69104316 -6.87757138 0 0 Z " fill="#FEDD58" transform="translate(200.6328125,127.23828125)"/>
<path d="M0 0 C2.3125 1.1875 2.3125 1.1875 3.3125 2.1875 C3.08512822 12.52417072 1.49888519 22.9246922 0.3125 33.1875 C6.62123298 38.51273047 6.62123298 38.51273047 14.38671875 39.984375 C17.1018265 39.18688007 19.67863153 38.2152426 22.3125 37.1875 C23.3025 37.1875 24.2925 37.1875 25.3125 37.1875 C25.36148438 36.4346875 25.41046875 35.681875 25.4609375 34.90625 C25.91457182 28.46151421 26.49528204 22.04084111 27.25 15.625 C27.32460449 14.94695313 27.39920898 14.26890625 27.47607422 13.5703125 C27.90454678 10.07243428 28.47013714 7.21699206 30.3125 4.1875 C33.32197699 3.67368686 35.44429155 3.62229047 38.05859375 5.32421875 C45.21604874 11.90780207 49.80411193 21.27537758 50.515625 30.94921875 C50.69192868 41.95350658 48.43279559 50.62473073 41.3125 59.1875 C33.88649103 66.79400224 33.88649103 66.79400224 28.3125 68.1875 C27.8175 74.1275 27.8175 74.1275 27.3125 80.1875 C28.611875 80.55875 28.611875 80.55875 29.9375 80.9375 C36.62428059 83.4140854 39.77334708 86.51653925 43.70239258 92.28125 C51.5883541 103.76043584 61.11226977 109.82010307 73.40161133 116.05273438 C75.3125 117.1875 75.3125 117.1875 76.3125 119.1875 C76.7183366 123.92502961 75.92407345 126.58671723 73.49609375 130.63671875 C72.89603516 131.65056641 72.29597656 132.66441406 71.67773438 133.70898438 C71.04158203 134.75376953 70.40542969 135.79855469 69.75 136.875 C69.14091797 137.90044922 68.53183594 138.92589844 67.90429688 139.98242188 C66.06369672 143.0656706 64.19409203 146.12911816 62.3125 149.1875 C61.67844238 150.22729004 61.04438477 151.26708008 60.39111328 152.33837891 C59.47241455 153.82023682 59.47241455 153.82023682 58.53515625 155.33203125 C57.98738525 156.21866455 57.43961426 157.10529785 56.87524414 158.01879883 C55.3125 160.1875 55.3125 160.1875 52.3125 162.1875 C46.63233238 162.01969593 42.37179923 159.2716545 37.625 156.4375 C36.48708008 155.79167969 36.48708008 155.79167969 35.32617188 155.1328125 C29.92096479 151.94598255 27.33243629 149.24730887 25.3125 143.1875 C23.3325 142.8575 21.3525 142.5275 19.3125 142.1875 C19.25304199 142.78175781 19.19358398 143.37601563 19.13232422 143.98828125 C18.8434555 146.72482027 18.51578724 149.45542067 18.1875 152.1875 C18.04828125 153.58935547 18.04828125 153.58935547 17.90625 155.01953125 C17.05284155 161.79938725 15.08995711 166.25250166 10.3125 171.1875 C5.15920117 174.99112533 0.6575257 175.61050171 -5.6875 175.1875 C-12.65536916 173.81587221 -16.69728679 169.92415435 -20.6875 164.1875 C-24.47711058 152.81866826 -20.6275735 138.66626821 -18.6875 127.1875 C-19.62851562 127.0534375 -20.56953125 126.919375 -21.5390625 126.78125 C-24.6875 126.1875 -24.6875 126.1875 -27.0625 124.6875 C-29.50006506 120.9373999 -28.96265025 117.52875953 -28.6875 113.1875 C-28.6875 111.8675 -28.6875 110.5475 -28.6875 109.1875 C-28.67589844 108.34574219 -28.66429688 107.50398438 -28.65234375 106.63671875 C-28.61035546 102.39590129 -28.63156402 98.50277553 -29.375 94.3125 C-29.76133551 90.4491449 -28.66269676 89.42682269 -26.6875 86.1875 C-26.6875 84.8675 -26.6875 83.5475 -26.6875 82.1875 C-26.6875 77.97249899 -26.32699407 76.39259994 -23.6875 73.1875 C-20.09946627 70.3968071 -16.02710021 71.04284666 -11.6875 71.1875 C-11.21621111 68.4186778 -11.03517667 66.87586282 -11.6875 64.1875 C-13.51356963 61.7527405 -15.5478466 59.63438952 -17.6484375 57.43359375 C-23.71926661 50.74637778 -25.6110231 42.2716626 -25.72265625 33.390625 C-25.14266451 23.37515781 -21.58634468 14.52736671 -14.6875 7.1875 C-4.75804133 -1.43847761 -4.75804133 -1.43847761 0 0 Z M-10.6875 13.1875 C-16.63371431 20.78058249 -19.04907593 29.02377693 -18.5625 38.6640625 C-17.3640678 45.72981903 -13.6053007 52.98293947 -7.875 57.3125 C-5.6875 59.1875 -5.6875 59.1875 -4.8125 62.875 C-4.53611597 66.75164968 -4.94365641 70.47197476 -5.53125 74.3046875 C-5.85914066 76.27726334 -5.85914066 76.27726334 -4.6875 78.1875 C-4.54374578 81.56572416 -4.61213652 83.96140955 -5.6875 87.1875 C-5.0275 88.1775 -4.3675 89.1675 -3.6875 90.1875 C-3.11730132 96.45968543 -3.11730132 96.45968543 -5.12890625 99.02734375 C-7.10338735 101.76390528 -7.43173828 103.99241905 -7.9375 107.3125 C-8.10765625 108.36695313 -8.2778125 109.42140625 -8.453125 110.5078125 C-8.9204664 113.15777141 -8.9204664 113.15777141 -7.6875 115.1875 C-7.375 118 -7.375 118 -7.6875 121.1875 C-8.31785156 121.85910156 -8.94820312 122.53070313 -9.59765625 123.22265625 C-12.61819346 127.50786698 -12.85071076 131.68327172 -13.4375 136.8125 C-13.56253906 137.74707031 -13.68757813 138.68164062 -13.81640625 139.64453125 C-15.54353685 151.41542151 -15.54353685 151.41542151 -13.0625 162.6875 C-9.95227639 165.96141959 -7.33901325 168.01559443 -2.69921875 168.31640625 C1.25751193 168.07050773 3.02842715 167.41599338 6.1875 164.875 C9.38490567 160.83122224 10.55246567 157.77012871 11.18212891 152.65625 C11.32212311 151.54830078 11.46211731 150.44035156 11.60635376 149.29882812 C11.74914764 148.10708984 11.89194153 146.91535156 12.0390625 145.6875 C12.19160492 144.45966797 12.34414734 143.23183594 12.50131226 141.96679688 C12.90452475 138.70733402 13.30106417 135.4471461 13.69476318 132.18652344 C14.09705488 128.87350923 14.51034937 125.56187958 14.921875 122.25 C15.23238428 119.72924216 15.54230013 117.20841113 15.8515625 114.6875 C15.99840485 113.49576172 16.14524719 112.30402344 16.29653931 111.07617188 C16.43022919 109.96822266 16.56391907 108.86027344 16.70166016 107.71875 C16.81998199 106.74486328 16.93830383 105.77097656 17.06021118 104.76757812 C17.3773795 101.95606179 17.3773795 101.95606179 17.3125 98.1875 C15.4253125 97.81625 15.4253125 97.81625 13.5 97.4375 C10.81086373 96.74736768 9.46314198 96.31460417 7.3125 94.5 C5.87054114 91.16547014 5.87081485 88.78407908 6.3125 85.1875 C7.75 82.375 7.75 82.375 10.3125 80.1875 C12.66516441 79.43481191 14.94985046 78.94570778 17.38671875 78.546875 C19.3133289 78.37513488 19.3133289 78.37513488 20.3125 77.1875 C20.36148438 76.38183594 20.41046875 75.57617188 20.4609375 74.74609375 C20.81582821 69.85716829 21.08379027 66.39593399 24.6796875 62.859375 C26.61355405 61.52820399 28.57147446 60.23136662 30.55078125 58.96875 C37.94489525 54.19970335 41.23840513 47.6120539 43.3125 39.1875 C44.43443983 31.734614 42.76197565 24.85222765 39.3125 18.1875 C37.27913078 15.91294199 37.27913078 15.91294199 35.3125 14.1875 C33.42965174 23.46152919 32.3480769 32.79019048 31.3125 42.1875 C28.86970638 42.92476166 26.42609505 43.65889485 23.98046875 44.38671875 C21.83537629 45.03056056 19.69763627 45.69887351 17.5625 46.375 C12.63136542 47.60778365 9.14310144 47.914348 4.69921875 45.2890625 C3.45689315 44.47753273 2.22388214 43.65158639 1 42.8125 C0.05157227 42.19375 0.05157227 42.19375 -0.91601562 41.5625 C-5.53456686 38.49336627 -5.53456686 38.49336627 -6.6875 36.1875 C-6.62285361 34.08061528 -6.48542222 31.97577135 -6.3125 29.875 C-6.21324219 28.62847656 -6.11398438 27.38195312 -6.01171875 26.09765625 C-5.90472656 24.80730469 -5.79773437 23.51695313 -5.6875 22.1875 C-5.49879164 19.72925913 -5.31120395 17.27093184 -5.125 14.8125 C-4.97956206 12.93746929 -4.83388369 11.06245711 -4.6875 9.1875 C-7.17390641 9.1875 -9.04106106 11.65082366 -10.6875 13.1875 Z M-17.6875 78.1875 C-18.6775 79.6725 -18.6775 79.6725 -19.6875 81.1875 C-17.78994856 83.53723818 -17.78994856 83.53723818 -14.5625 83.3125 C-13.61375 83.27125 -12.665 83.23 -11.6875 83.1875 C-11.6875 81.8675 -11.6875 80.5475 -11.6875 79.1875 C-12.74179686 77.92277935 -12.74179686 77.92277935 -15.125 77.9375 C-15.970625 78.02 -16.81625 78.1025 -17.6875 78.1875 Z M13.3125 86.1875 C12.72179986 88.13353274 12.72179986 88.13353274 12.3125 90.1875 C13.98438361 91.85938361 16.27281422 91.63139228 18.5625 91.9375 C23.7096126 92.85401811 26.06508409 93.91946766 29.3125 98.1875 C29.84875 98.82429688 30.385 99.46109375 30.9375 100.1171875 C34.0930206 103.98854379 35.69723602 106.03382685 35.3125 111.1875 C33.125 111.125 33.125 111.125 30.3125 110.1875 C28.83187278 108.43766783 27.62983496 106.63282728 26.42578125 104.68359375 C25.87470703 103.94302734 25.87470703 103.94302734 25.3125 103.1875 C24.6525 103.1875 23.9925 103.1875 23.3125 103.1875 C22.80556328 107.20749019 22.3081961 111.22860954 21.8125 115.25 C21.66941406 116.38373047 21.52632812 117.51746094 21.37890625 118.68554688 C20.70058682 124.22515554 20.11806218 129.60551428 20.3125 135.1875 C28.91772619 135.88641274 28.91772619 135.88641274 36.3125 132.1875 C41.79881639 126.70118361 47.28044655 118.76045954 47.3359375 110.84375 C45.97431481 105.97932695 43.62423143 102.59575167 40.5625 98.625 C39.98483887 97.87500732 39.40717773 97.12501465 38.81201172 96.35229492 C32.59113396 88.69952095 23.43108933 81.01054732 13.3125 86.1875 Z M-21.6875 91.1875 C-21.6875 92.5075 -21.6875 93.8275 -21.6875 95.1875 C-18.0575 95.5175 -14.4275 95.8475 -10.6875 96.1875 C-10.3575 94.8675 -10.0275 93.5475 -9.6875 92.1875 C-11.25117978 90.62382022 -12.96588393 90.804321 -15.125 90.5625 C-15.92808594 90.46710938 -16.73117188 90.37171875 -17.55859375 90.2734375 C-19.74225766 90.01365983 -19.74225766 90.01365983 -21.6875 91.1875 Z M-21.6875 103.1875 C-21.3575 104.5075 -21.0275 105.8275 -20.6875 107.1875 C-18.7075 107.1875 -16.7275 107.1875 -14.6875 107.1875 C-14.6875 105.8675 -14.6875 104.5475 -14.6875 103.1875 C-18.27077753 102.18532936 -18.27077753 102.18532936 -21.6875 103.1875 Z M54.3125 114.1875 C53.79300781 115.26128906 53.27351563 116.33507812 52.73828125 117.44140625 C52.0341835 118.87776565 51.32973775 120.3139545 50.625 121.75 C50.11549805 122.80670898 50.11549805 122.80670898 49.59570312 123.88476562 C43.17612057 136.90391904 43.17612057 136.90391904 37.5625 139.4375 C34.04299461 140.85374167 34.04299461 140.85374167 33.3125 144.1875 C36.47982096 146.9325115 39.84068192 149.26038042 43.375 151.5 C44.21160156 152.03238281 45.04820313 152.56476563 45.91015625 153.11328125 C48.16432676 154.32941302 48.16432676 154.32941302 50.21948242 154.13476562 C53.49474182 152.65243663 54.44967524 150.19010451 56.203125 147.10546875 C56.55260193 146.49488113 56.90207886 145.88429352 57.262146 145.25520325 C57.99771121 143.96328674 58.72692206 142.66773452 59.45019531 141.36889648 C60.55743096 139.38408667 61.68699668 137.41336948 62.8203125 135.44335938 C66.92698302 128.74110238 66.92698302 128.74110238 68.3125 121.1875 C65.71973628 119.14283589 65.71973628 119.14283589 62.4375 117.4375 C61.34695312 116.82390625 60.25640625 116.2103125 59.1328125 115.578125 C56.53762056 114.04008742 56.53762056 114.04008742 54.3125 114.1875 Z M-20.6875 115.1875 C-21.27820014 117.13353274 -21.27820014 117.13353274 -21.6875 119.1875 C-20.56215895 120.54368499 -20.56215895 120.54368499 -17.625 120.25 C-16.655625 120.229375 -15.68625 120.20875 -14.6875 120.1875 C-14.6875 118.8675 -14.6875 117.5475 -14.6875 116.1875 C-15.75395115 114.89116379 -15.75395115 114.89116379 -18.25 115.125 C-19.054375 115.145625 -19.85875 115.16625 -20.6875 115.1875 Z " fill="#BD7F22" transform="translate(49.6875,34.8125)"/>
<path d="M0 0 C10.41717301 5.00825626 17.34769521 12.73610568 21.25 23.5625 C24.01337472 32.18422912 23.02827795 42.81289686 19.6015625 51.046875 C17.12425682 55.6578139 13.95469861 59.85780139 10.25 63.5625 C10.01924918 64.90997084 9.83846937 66.26627565 9.6875 67.625 C9.543125 68.924375 9.39875 70.22375 9.25 71.5625 C9.84167969 71.51609375 10.43335938 71.4696875 11.04296875 71.421875 C15.26985618 71.22880347 17.5748392 71.1405245 21.25 73.4375 C23.25 75.5625 23.25 75.5625 24.25 77.5625 C24.18619241 79.57243912 24.119729 81.58294071 23.9921875 83.58984375 C24.0589169 85.67592449 24.0589169 85.67592449 25.7421875 87.03125 C27.25 88.5625 27.25 88.5625 27.578125 90.75390625 C27.55234375 91.53636719 27.5265625 92.31882812 27.5 93.125 C27.48453125 93.91003906 27.4690625 94.69507813 27.453125 95.50390625 C27.25 97.5625 27.25 97.5625 26.25 99.5625 C26.58 100.2225 26.91 100.8825 27.25 101.5625 C27.38357453 105.23579964 27.4171568 108.06102959 26.25 111.5625 C26.58 112.2225 26.91 112.8825 27.25 113.5625 C27.75809831 117.87717092 28.04119522 121.39035894 25.5625 125.0625 C23.06101006 126.68508807 21.15652233 127.06120925 18.25 127.5625 C18.38631836 128.46790527 18.38631836 128.46790527 18.52539062 129.39160156 C23.15218314 160.50974712 23.15218314 160.50974712 17.67578125 167.9453125 C13.25860839 172.95547569 9.07914887 175.33060255 2.4375 175.875 C-2.85097808 175.69572956 -7.5066912 174.57254439 -11.515625 170.98046875 C-16.15971512 165.80659165 -17.86364739 160.93327644 -18.875 154.0625 C-19.04257812 152.9590625 -19.21015625 151.855625 -19.3828125 150.71875 C-19.70395237 147.95831369 -19.82245898 145.33664373 -19.75 142.5625 C-22.06 142.8925 -24.37 143.2225 -26.75 143.5625 C-26.770625 144.42875 -26.79125 145.295 -26.8125 146.1875 C-28.76063246 153.20077687 -35.94227326 156.43527994 -41.875 159.9375 C-42.47272217 160.29569824 -43.07044434 160.65389648 -43.6862793 161.02294922 C-49.87239459 164.54143645 -49.87239459 164.54143645 -53.75 163.5625 C-57.3352215 159.6257503 -60.14231424 155.53257127 -62.88671875 150.95703125 C-63.43499077 150.04820442 -63.43499077 150.04820442 -63.99433899 149.12101746 C-65.14682825 147.20849807 -66.29236731 145.29193134 -67.4375 143.375 C-68.59486554 141.44830553 -69.753638 139.52246402 -70.91279602 137.59684753 C-71.95810315 135.85868461 -73.00001809 134.11848301 -74.04174805 132.37817383 C-75.23429133 130.41253117 -76.47468278 128.47547583 -77.75 126.5625 C-77.9375 123.25 -77.9375 123.25 -76.75 119.5625 C-73.24249541 116.30009814 -68.90994041 114.16389585 -64.68359375 111.97265625 C-55.86458203 107.12273043 -51.05627857 101.46807912 -45.40625 93.26953125 C-41.03963534 86.99584183 -36.60647445 83.70020865 -29.75 80.5625 C-29.75 76.9325 -29.75 73.3025 -29.75 69.5625 C-31.0803125 69.18738281 -31.0803125 69.18738281 -32.4375 68.8046875 C-41.58701445 65.37361958 -46.77802773 57.74467149 -50.69140625 49.1640625 C-54.10670403 40.77074767 -54.32722845 29.40836238 -51 20.875 C-50.29172229 19.41649085 -49.54581979 17.97514897 -48.75 16.5625 C-48.151875 15.49 -47.55375 14.4175 -46.9375 13.3125 C-44.22766673 9.90585246 -41.15183132 7.25720908 -37.75 4.5625 C-35.375 5 -35.375 5 -32.75 6.5625 C-31.04821699 11.1008004 -30.6436283 16.1368879 -30.14453125 20.9296875 C-30.04720703 21.83460937 -29.94988281 22.73953125 -29.84960938 23.671875 C-29.65599104 25.53693321 -29.48458751 27.40441399 -29.33398438 29.2734375 C-29.03209404 31.88357005 -28.71292198 34.11633725 -27.75 36.5625 C-24.45733313 38.78292463 -24.45733313 38.78292463 -20.75 39.5625 C-19.1103125 40.0884375 -19.1103125 40.0884375 -17.4375 40.625 C-11.88858162 40.53095054 -8.21549564 37.66229074 -3.75 34.5625 C-4.25748898 26.52280622 -5.097191 18.61541568 -6.34765625 10.65625 C-6.70775481 7.88733684 -6.95129114 5.34620923 -6.75 2.5625 C-4.48809834 -0.13438275 -3.49489948 -0.55600674 0 0 Z M1.25 9.5625 C1.394375 10.73425781 1.53875 11.90601563 1.6875 13.11328125 C2.17919202 17.17536716 2.5905128 21.24263781 2.9921875 25.31445312 C3.20660085 27.1840726 3.52766792 29.04108168 3.875 30.890625 C4.29711749 33.96856502 4.41215978 35.66647281 3.25 38.5625 C-1.78945008 43.28352329 -7.65441224 47.71437147 -14.7890625 47.92578125 C-18.68808589 47.56817851 -21.92473051 46.81623837 -25.625 45.5625 C-29.60983893 44.09987411 -29.60983893 44.09987411 -33.75 43.5625 C-35.07 34.6525 -36.39 25.7425 -37.75 16.5625 C-38.74 16.5625 -39.73 16.5625 -40.75 16.5625 C-45.70161025 25.06865903 -47.17628125 32.78375159 -45.75 42.5625 C-43.17185795 50.67192864 -38.83640054 56.82911277 -31.75 61.5625 C-30.48286759 62.11276866 -29.21221207 62.65502534 -27.9375 63.1875 C-22.83346892 66.99050355 -22.66923279 72.50431815 -21.75 78.5625 C-20.99074219 78.70945312 -20.23148437 78.85640625 -19.44921875 79.0078125 C-11.34349241 80.83712039 -11.34349241 80.83712039 -8.5 84.3125 C-7.48517516 88.7100743 -7.43432068 92.44279443 -9.875 96.375 C-12.62750384 98.11825243 -15.62516512 98.70732001 -18.75 99.5625 C-17.47011125 111.77987485 -15.95676938 123.94972453 -14.20043945 136.10791016 C-13.93882881 137.93177593 -13.68209891 139.75634759 -13.42993164 141.58154297 C-13.0585521 144.26946481 -12.67347383 146.95510422 -12.28515625 149.640625 C-12.17567154 150.45001526 -12.06618683 151.25940552 -11.9533844 152.09332275 C-11.14517942 157.52421342 -9.91590279 162.23615997 -6.0625 166.375 C-2.71556862 168.09369449 0.52759873 168.67029154 4.25 168.5625 C8.10562442 167.3020074 9.90750127 165.94105123 12.625 162.9375 C15.98958318 155.94951955 14.07994779 147.53829286 13.0625 140.0625 C12.96130859 139.17691406 12.86011719 138.29132813 12.75585938 137.37890625 C11.97557428 131.63432084 10.45441569 127.49722148 7.24951172 122.65039062 C5.6743965 119.36011575 6.39983252 116.55554622 6.97265625 113.05859375 C7.41498155 109.07766607 6.73829267 105.27563835 5.25 101.5625 C4.734375 101.07523437 4.21875 100.58796875 3.6875 100.0859375 C2.25 98.5625 2.25 98.5625 1.921875 96.44140625 C1.94765625 95.67699219 1.9734375 94.91257812 2 94.125 C2.01546875 93.36316406 2.0309375 92.60132813 2.046875 91.81640625 C2.25 89.5625 2.25 89.5625 2.7578125 87.66015625 C4.46790989 80.37188405 3.38624181 72.01573771 2.2734375 64.68359375 C2.24469218 62.08214256 2.87785383 60.75336006 4.25 58.5625 C5.91666667 56.89583333 7.58333333 55.22916667 9.25 53.5625 C15.16062057 45.62538094 16.15231564 38.25953774 15.25 28.5625 C13.55787737 21.33804831 9.79184187 15.48715299 4.25 10.5625 C3.26 10.2325 2.27 9.9025 1.25 9.5625 Z M10.25 78.5625 C9.65929986 80.50853274 9.65929986 80.50853274 9.25 82.5625 C10.37534105 83.91868499 10.37534105 83.91868499 13.3125 83.625 C14.281875 83.604375 15.25125 83.58375 16.25 83.5625 C16.84070014 81.61646726 16.84070014 81.61646726 17.25 79.5625 C16.12465895 78.20631501 16.12465895 78.20631501 13.1875 78.5 C12.218125 78.520625 11.24875 78.54125 10.25 78.5625 Z M-37.9375 94.6875 C-38.89963918 95.9609195 -39.83376671 97.25566199 -40.75 98.5625 C-41.46671875 99.50867188 -42.1834375 100.45484375 -42.921875 101.4296875 C-47.39107503 107.12672582 -47.39107503 107.12672582 -48.70703125 113.98828125 C-47.64843853 117.941801 -46.07241077 121.25661641 -44 124.75 C-43.66484375 125.35263672 -43.3296875 125.95527344 -42.984375 126.57617188 C-40.13931463 131.48497868 -37.18284296 134.75155235 -31.75 136.5625 C-29.79322445 136.72004704 -29.79322445 136.72004704 -27.75 136.6875 C-26.7290625 136.69136719 -26.7290625 136.69136719 -25.6875 136.6953125 C-23.53125219 136.62881126 -23.53125219 136.62881126 -20.75 135.5625 C-22.07 125.6625 -23.39 115.7625 -24.75 105.5625 C-25.74 105.5625 -26.73 105.5625 -27.75 105.5625 C-29.03178844 107.11267142 -29.03178844 107.11267142 -30.125 109.0625 C-31.41015625 111.00390625 -31.41015625 111.00390625 -32.75 112.5625 C-35.5625 113 -35.5625 113 -37.75 112.5625 C-36.51991462 105.48950905 -32.55433515 100.76640362 -27.75 95.5625 C-24.17645577 93.18013718 -21.98133972 93.25230209 -17.80859375 93.1015625 C-15.55034478 92.76147739 -15.55034478 92.76147739 -14.47265625 90.5234375 C-14.23417969 89.87632812 -13.99570312 89.22921875 -13.75 88.5625 C-16.07554595 86.4158422 -17.36057671 85.5977542 -20.5546875 85.30859375 C-27.12431573 85.83063022 -33.55892501 89.80508898 -37.9375 94.6875 Z M8.25 92.5625 C8.58 93.8825 8.91 95.2025 9.25 96.5625 C12.55 96.2325 15.85 95.9025 19.25 95.5625 C19.58 94.2425 19.91 92.9225 20.25 91.5625 C19.22609653 90.32388461 19.22609653 90.32388461 17.0625 90.375 C13.85964058 90.58852396 11.24801865 91.44695818 8.25 92.5625 Z M12.25 103.5625 C12.58 104.8825 12.91 106.2025 13.25 107.5625 C15.23 107.5625 17.21 107.5625 19.25 107.5625 C19.84070014 105.61646726 19.84070014 105.61646726 20.25 103.5625 C19.19775333 102.28693182 19.19775333 102.28693182 16.8125 102.4375 C14.26021378 102.38943324 14.26021378 102.38943324 12.25 103.5625 Z M14.25 115.5625 C13.26 117.0475 13.26 117.0475 12.25 118.5625 C14.08883881 120.84978734 14.08883881 120.84978734 16.875 120.6875 C17.65875 120.64625 18.4425 120.605 19.25 120.5625 C19.58 118.9125 19.91 117.2625 20.25 115.5625 C17.33365871 115.3122843 17.33365871 115.3122843 14.25 115.5625 Z M-56.75 115.5625 C-61.37 118.2025 -65.99 120.8425 -70.75 123.5625 C-67.23630659 130.84039404 -63.35029306 137.71562774 -59.0625 144.5625 C-58.48177734 145.50222656 -57.90105469 146.44195312 -57.30273438 147.41015625 C-54.3741946 152.25627131 -54.3741946 152.25627131 -50.75 156.5625 C-48.09917088 154.94554324 -45.45525652 153.3176115 -42.8125 151.6875 C-42.05775391 151.22730469 -41.30300781 150.76710937 -40.52539062 150.29296875 C-39.44741211 149.62587891 -39.44741211 149.62587891 -38.34765625 148.9453125 C-37.68258057 148.53684082 -37.01750488 148.12836914 -36.33227539 147.70751953 C-34.5936597 146.63517006 -34.5936597 146.63517006 -33.75 144.5625 C-35.80436621 142.36319384 -37.81135149 140.9205741 -40.375 139.375 C-46.44352968 134.96662261 -49.38996953 127.92720053 -52.71020508 121.39013672 C-53.95181142 119.11854794 -53.95181142 119.11854794 -56.75 115.5625 Z " fill="#BD7F22" transform="translate(452.75,38.4375)"/>
<path d="M0 0 C1.49536133 2.11938477 1.49536133 2.11938477 3.08203125 4.94140625 C3.67701416 5.9876416 4.27199707 7.03387695 4.88500977 8.11181641 C5.52108154 9.25054199 6.15715332 10.38926758 6.8125 11.5625 C7.48325383 12.74717136 8.15506211 13.93124626 8.82788086 15.11474609 C10.21325549 17.55244233 11.5949978 19.99214364 12.97460938 22.43310547 C15.95388496 27.69284698 19.007982 32.90870961 22.0625 38.125 C23.22146586 40.10930977 24.38031995 42.09368482 25.5390625 44.078125 C26.69262644 46.05213119 27.84627217 48.02608959 29 50 C31.31332038 53.95785474 33.62595749 57.91610663 35.9375 61.875 C36.51395264 62.86218018 37.09040527 63.84936035 37.68432617 64.86645508 C41.9420168 72.16611392 46.16189825 79.48704158 50.375 86.8125 C56.16681543 96.87874295 62.06189165 106.87989992 67.99926758 116.86083984 C74.52782837 127.85219357 80.92518192 138.91676529 87.27001953 150.01513672 C88.50048954 152.13815766 89.7539847 154.24790564 91.02294922 156.34814453 C91.67408691 157.4307959 92.32522461 158.51344727 92.99609375 159.62890625 C93.59478271 160.61060791 94.19347168 161.59230957 94.81030273 162.60375977 C95.20290283 163.39451904 95.59550293 164.18527832 96 165 C95.67 165.66 95.34 166.32 95 167 C93.95963542 165.28645833 92.91927083 163.57291667 91.87890625 161.859375 C91.19973145 160.74079102 90.52055664 159.62220703 89.82080078 158.46972656 C88.29156139 155.95100895 86.76262713 153.43210643 85.23388672 150.91308594 C81.41208265 144.61616953 77.58767073 138.3208932 73.75390625 132.03125 C65.8531056 119.06037189 58.03815203 106.04309215 50.30059814 92.97418213 C43.89354019 82.15522505 37.4350967 71.36904248 30.87133789 60.64428711 C27.78713753 55.60264368 24.72461193 50.55673488 21.77734375 45.43359375 C21.29072266 44.60005371 20.80410156 43.76651367 20.30273438 42.90771484 C19.43566882 41.41825996 18.58238039 39.92063151 17.74804688 38.41259766 C14.51348711 32.90757331 10.16235853 29.26737352 3.98022461 27.38500977 C-8.14695855 25.02715403 -18.94475137 30.82550701 -29 37 C-39.08752962 44.03645337 -48.03348135 52.86173302 -55 63 C-55.33 62.34 -55.66 61.68 -56 61 C-54.89526367 58.56420898 -54.89526367 58.56420898 -53.16796875 55.49609375 C-52.53906738 54.37066162 -51.91016602 53.24522949 -51.26220703 52.08569336 C-50.57118297 50.86931916 -49.87960267 49.65326081 -49.1875 48.4375 C-48.49035944 47.20276034 -47.79358322 45.96781491 -47.09716797 44.73266602 C-45.71090265 42.27834132 -44.3189014 39.82739911 -42.92236328 37.37890625 C-41.29643262 34.52103473 -39.68891666 31.65418012 -38.08984375 28.78125 C-30.40786157 15.1202757 -22.86265299 5.86967093 -8 0 C-4.56355755 -0.93765787 -3.43191555 -1.14397185 0 0 Z " fill="#FDDC57" transform="translate(319,120)"/>
<path d="M0 0 C-0.14203857 0.70294189 -0.28407715 1.40588379 -0.43041992 2.13012695 C-0.80927372 4.03901097 -1.12511074 5.96150971 -1.3762207 7.89135742 C-2.32920399 11.80461805 -3.33130817 13.938049 -6 17 C-12.15446314 20.15883253 -19.17657883 21.32142674 -25.90844727 22.65991211 C-29.17183756 23.30938291 -32.41307068 24.02888311 -35.65820312 24.76367188 C-37.74388631 25.21772056 -39.83045494 25.66772466 -41.91796875 26.11328125 C-42.87873825 26.32140945 -43.83950775 26.52953766 -44.82939148 26.74397278 C-57.53203054 29.23989665 -69.4332028 25.85875022 -81.79638672 22.8840332 C-83.76795083 22.41909087 -85.74440787 21.97443591 -87.72509766 21.55004883 C-105.11772794 17.81277754 -105.11772794 17.81277754 -108.66210938 13.00634766 C-110.49981518 9.40149275 -112 6.09394079 -112 2 C-104.8050098 2.23490809 -97.94045754 3.56870367 -90.94140625 5.13671875 C-90.02563812 5.34007843 -89.10987 5.54343811 -88.16635132 5.75296021 C-84.33180265 6.60831853 -80.49899889 7.46937654 -76.67260742 8.3605957 C-61.38172883 11.92964762 -61.38172883 11.92964762 -46 10 C-44.33556387 9.61881937 -42.66906863 9.24657917 -41.0012207 8.88061523 C-35.1159655 7.58714728 -29.24539987 6.23407276 -23.375 4.875 C-20.33805379 4.17357456 -17.3008773 3.47320418 -14.26309204 2.77542114 C-12.38397446 2.34364188 -10.50535345 1.90969458 -8.62728882 1.47335815 C-7.78525909 1.27960602 -6.94322937 1.08585388 -6.07568359 0.88623047 C-4.96415421 0.62880569 -4.96415421 0.62880569 -3.83016968 0.36618042 C-2 0 -2 0 0 0 Z " fill="#BD7F22" transform="translate(304,97)"/>
<path d="M0 0 C5.94 0 11.88 0 18 0 C18.1992794 7.02498203 18.34364351 14.0482831 18.43945312 21.07543945 C18.47943246 23.46049699 18.53383647 25.84536165 18.60351562 28.22973633 C19.3277724 53.66925546 19.3277724 53.66925546 10 64 C4.15169114 58.65297476 -0.17331103 53.60574893 -0.56762695 45.41015625 C-0.56684383 43.29410568 -0.53909886 41.17794043 -0.48828125 39.0625 C-0.48120651 37.94182129 -0.47413177 36.82114258 -0.46684265 35.66650391 C-0.43900168 32.11030464 -0.37627862 28.55571809 -0.3125 25 C-0.287404 22.57944993 -0.26459312 20.15887501 -0.24414062 17.73828125 C-0.18920811 11.8249057 -0.10300364 5.91272566 0 0 Z " fill="#BD7F22" transform="translate(240,134)"/>
<path d="M0 0 C2.68574043 2.42765126 4.34509176 5.08472698 6.1875 8.1875 C14.18111185 20.8635623 24.83420612 27.58733258 39 32 C39.61101562 32.19464844 40.22203125 32.38929688 40.8515625 32.58984375 C57.33551634 35.73678039 72.03914306 30.54108308 85.87109375 21.8203125 C90.9861177 18.02216464 94.42669562 12.17857057 98 7 C98.495 7.99 98.495 7.99 99 9 C89.97107131 22.71993634 78.61931542 31.86058767 62.40234375 35.4921875 C45.29415071 38.04564915 30.84615196 34.35280567 16.62890625 24.328125 C9.80619661 18.79428079 1.42217378 8.977472 0 0 Z " fill="#F6D150" transform="translate(362,410)"/>
<path d="M0 0 C2.35731843 2.99562127 4.24454586 6.08029911 6.08203125 9.41796875 C6.67701416 10.49449707 7.27199707 11.57102539 7.88500977 12.68017578 C8.19866486 13.25092834 8.51231995 13.82168091 8.83547974 14.409729 C10.17102869 16.83987327 11.51321145 19.26633193 12.85496521 21.6930542 C13.5486313 22.94779133 14.24195708 24.20271664 14.93495178 25.45782471 C18.28680259 31.52701878 21.67174626 37.57746371 25.0625 43.625 C25.62437012 44.63014648 26.18624023 45.63529297 26.76513672 46.67089844 C29.49306373 51.54770033 32.23286061 56.41703221 35.00556946 61.26849365 C36.00875357 63.02506968 37.00866798 64.78346548 38.00756836 66.54248047 C39.27263683 68.76791275 40.5440677 70.98974295 41.82250977 73.20751953 C42.38510498 74.19993652 42.9477002 75.19235352 43.52734375 76.21484375 C44.02999756 77.09261475 44.53265137 77.97038574 45.05053711 78.87475586 C45.36385986 79.57608643 45.67718262 80.27741699 46 81 C45.67 81.66 45.34 82.32 45 83 C35.19529906 66.75251873 25.51011356 50.43977204 15.94894409 34.04794312 C13.82639641 30.41001376 11.69218119 26.77920232 9.55078125 23.15234375 C8.55452681 21.45582352 7.55842068 19.75921618 6.5625 18.0625 C6.1200293 17.31822754 5.67755859 16.57395508 5.22167969 15.80712891 C2.18049056 10.60150084 0 6.16408248 0 0 Z " fill="#F8D452" transform="translate(268,301)"/>
<path d="M0 0 C3.71304094 1.23768031 3.94843182 2.17521257 5.78515625 5.53125 C6.31157715 6.4797583 6.83799805 7.4282666 7.38037109 8.40551758 C7.93547363 9.42669678 8.49057617 10.44787598 9.0625 11.5 C10.2211197 13.59850534 11.38129226 15.69615402 12.54296875 17.79296875 C13.12095215 18.83888184 13.69893555 19.88479492 14.29443359 20.96240234 C17.13881843 26.02822486 20.13992869 31.00189682 23.19165039 35.9453125 C24.18706876 37.59586707 25.10298962 39.29396351 26 41 C25.67 41.66 25.34 42.32 25 43 C24.52691406 42.21987549 24.05382812 41.43975098 23.56640625 40.63598633 C21.77002817 37.67419484 19.97326825 34.71263564 18.17626953 31.7512207 C17.40626543 30.48210435 16.63640312 29.21290196 15.86669922 27.94360352 C15.11885667 26.71039649 14.37080936 25.47731363 13.62255859 24.24435425 C12.87371693 23.01036563 12.12534501 21.77609182 11.37744141 20.54153442 C9.48902218 17.42940765 7.58549923 14.32821989 5.65234375 11.24365234 C5.27980469 10.64695236 4.90726562 10.05025238 4.5234375 9.43547058 C3.49693986 7.79425421 2.4654192 6.15618259 1.43359375 4.51831055 C0 2 0 2 0 0 Z " fill="#F8D452" transform="translate(389,244)"/>
<path d="M0 0 C1.65 0.33 3.3 0.66 5 1 C4.67 2.65 4.34 4.3 4 6 C2.35 5.67 0.7 5.34 -1 5 C-0.67 3.35 -0.34 1.7 0 0 Z " fill="#BD7F22" transform="translate(406,182)"/>
<path d="M0 0 C1.65 0.33 3.3 0.66 5 1 C4.67 2.65 4.34 4.3 4 6 C2.35 5.67 0.7 5.34 -1 5 C-0.67 3.35 -0.34 1.7 0 0 Z " fill="#BD7F22" transform="translate(92,177)"/>
</svg>
